<?xml version="1.0" encoding="utf-8"?>
<!-- Generator: Adobe Illustrator 20.1.0, SVG Export Plug-In . SVG Version: 6.00 Build 0)  -->
<svg version="1.1" xmlns="http://www.w3.org/2000/svg" xmlns:xlink="http://www.w3.org/1999/xlink" x="0px" y="0px"
	 viewBox="0 0 488.186 325.457" style="enable-background:new 0 0 488.186 325.457;" xml:space="preserve">
<style type="text/css">
	.st0{fill:#FFFFFF;stroke:#00BCD4;stroke-width:4.0613;stroke-miterlimit:10;}
	.st1{fill:url(#);}
	.st2{fill:#FFCDD2;}
	.st3{fill:#F44336;}
	.st4{fill:#FFFFFF;stroke:#00BCD4;stroke-width:3.5009;stroke-miterlimit:10;}
	.st5{fill:#FFFFFF;stroke:#00BCD4;stroke-width:3;stroke-miterlimit:10;}
	.st6{fill:none;stroke:#00BCD4;stroke-width:3;stroke-miterlimit:10;}
	.st7{fill:#FFFFFF;stroke:#00BCD4;stroke-width:4;stroke-miterlimit:10;}
	.st8{fill:#00BCD4;}
	.st9{fill:none;stroke:#00BCD4;stroke-width:2;stroke-miterlimit:10;}
	.st10{fill:#FFFFFF;stroke:#00BCD4;stroke-width:2.8287;stroke-miterlimit:10;}
	.st11{fill:#FFFFFF;stroke:#00BCD4;stroke-width:2.4239;stroke-miterlimit:10;}
	.st12{fill:none;stroke:#00BCD4;stroke-width:2.4239;stroke-miterlimit:10;}
	.st13{fill:#FFE0B2;}
	.st14{fill:#FFFFFF;stroke:#00BCD4;stroke-width:1.3672;stroke-miterlimit:10;}
	.st15{fill:#FFFFFF;stroke:#00BCD4;stroke-width:1.1715;stroke-miterlimit:10;}
	.st16{fill:none;stroke:#00BCD4;stroke-width:1.1715;stroke-miterlimit:10;}
	.st17{fill:#FFFFFF;stroke:#00BCD4;stroke-miterlimit:10;}
</style>
<g id="Layer_2">
</g>
<g id="Layer_1">
	<g>
		<polygon class="st6" points="137.198,194.872 154.614,212.288 154.614,236.917 137.198,254.333 112.569,254.333 95.153,236.917 
			95.153,212.288 112.569,194.872 		"/>
		<polygon class="st6" points="352.723,194.872 370.138,212.288 370.138,236.917 352.723,254.333 328.093,254.333 310.678,236.917 
			310.678,212.288 328.093,194.872 		"/>
		<polygon class="st5" points="370.686,132.957 370.686,82.957 79.686,82.957 79.686,199.957 370.139,199.957 408.686,199.957 
			408.686,132.957 		"/>
		<line class="st6" x1="295.593" y1="82.957" x2="295.593" y2="199.957"/>
		<line class="st6" x1="280.508" y1="82.957" x2="280.508" y2="199.957"/>
		<g>
			<path class="st8" d="M131.221,104.762c0-0.559-0.468-1.026-1.026-1.026s-1.008,0.468-1.008,1.026
				c0,0.558,0.449,1.008,1.008,1.008c1.314,0,2.503,0.63,3.259,1.603c0.576,0.72,0.9,1.62,0.9,2.61c0,2.305-1.854,4.142-4.159,4.142
				c-2.305,0-4.159-1.818-4.159-4.195h3.151c0,0.576,0.449,1.026,1.008,1.026s1.026-0.45,1.026-1.008
				c0-0.559-0.468-1.026-1.026-1.026c-2.305,0-4.142-1.837-4.142-4.142s1.837-4.159,4.142-4.159c2.305,0,4.159,1.837,4.159,4.142
				H131.221z"/>
			<path class="st8" d="M146.702,109.317l-2.232,4.808h-2.557l-6.23-13.504h3.89l3.817,8.265l2.574-5.618h1.494l2.575,5.618
				l3.835-8.265h3.89l-6.248,13.504h-2.557L146.702,109.317z"/>
			<path class="st8" d="M159.299,100.62h8.391v2.935h-4.844v2.197h4.286v2.988h-4.286v2.485h4.844v2.898h-8.391V100.62z"/>
			<path class="st8" d="M170.225,100.62h8.391v2.935h-4.844v2.197h4.286v2.988h-4.286v2.485h4.844v2.898h-8.391V100.62z"/>
			<path class="st8" d="M180.863,100.602h10.642v3.529h-3.583v9.993h-3.547v-9.993h-3.512V100.602z"/>
			<path class="st8" d="M201.926,105.085c-0.559-0.558-1.351-0.882-2.27-0.882c-1.836,0-3.169,1.332-3.169,3.169
				s1.333,3.169,3.169,3.169c0.919,0,1.711-0.324,2.27-0.9l2.521,2.484c-1.225,1.225-2.917,1.999-4.79,1.999
				c-3.727,0-6.752-3.024-6.752-6.752s3.025-6.752,6.752-6.752c1.854,0,3.529,0.738,4.754,1.963L201.926,105.085z"/>
			<path class="st8" d="M214.976,114.124l-2.089-3.583h-2.197v3.583h-3.547V100.62h5.69c2.736,0,4.969,2.232,4.969,4.97
				c0,1.44-0.63,2.736-1.603,3.637l2.863,4.897H214.976z M210.69,107.481h2.197c1.08,0,1.944-0.847,1.944-1.927
				c0-1.081-0.864-1.944-1.944-1.944h-2.197V107.481z"/>
			<path class="st8" d="M220.264,114.124l6.302-13.504h1.603l6.356,13.504h-3.547l-0.828-1.765h-5.528l-0.81,1.765H220.264z
				 M226.008,109.371h2.755l-1.368-2.972L226.008,109.371z"/>
			<path class="st8" d="M235.132,100.602h10.642v3.529h-3.583v9.993h-3.547v-9.993h-3.512V100.602z"/>
			<path class="st8" d="M248.218,100.62h8.391v2.935h-4.844v2.197h4.286v2.988h-4.286v2.485h4.844v2.898h-8.391V100.62z"/>
			<path class="st8" d="M126.251,122.22h8.391v2.935h-4.844v2.197h4.286v2.988h-4.286v2.485h4.844v2.898h-8.391V122.22z"/>
			<path class="st8" d="M149.763,122.22l-4.501,6.464l4.951,7.04h-4.321l-2.791-3.961l-2.809,3.961h-4.321l4.951-7.04l-4.501-6.464
				h4.321l2.358,3.367l2.341-3.367H149.763z"/>
			<path class="st8" d="M151.739,122.22h5.69c2.736,0,4.969,2.232,4.969,4.97c0,2.719-2.215,4.951-4.897,4.951h-2.215v3.583h-3.547
				V122.22z M155.285,129.08h2.197c1.08,0,1.944-0.847,1.944-1.927c0-1.081-0.864-1.944-1.944-1.944h-2.197V129.08z"/>
			<path class="st8" d="M172.136,135.724l-2.089-3.583h-2.197v3.583h-3.547V122.22h5.69c2.736,0,4.969,2.232,4.969,4.97
				c0,1.44-0.63,2.736-1.603,3.637l2.863,4.897H172.136z M167.85,129.08h2.197c1.08,0,1.944-0.847,1.944-1.927
				c0-1.081-0.864-1.944-1.944-1.944h-2.197V129.08z"/>
			<path class="st8" d="M177.965,122.22h8.391v2.935h-4.844v2.197h4.286v2.988h-4.286v2.485h4.844v2.898h-8.391V122.22z"/>
			<path class="st8" d="M193.861,126.361c0-0.559-0.468-1.026-1.026-1.026c-0.558,0-1.008,0.468-1.008,1.026
				c0,0.558,0.45,1.008,1.008,1.008c1.314,0,2.503,0.63,3.259,1.603c0.576,0.72,0.9,1.62,0.9,2.61c0,2.305-1.854,4.142-4.159,4.142
				s-4.159-1.818-4.159-4.195h3.151c0,0.576,0.45,1.026,1.008,1.026c0.559,0,1.026-0.45,1.026-1.008
				c0-0.559-0.468-1.026-1.026-1.026c-2.305,0-4.142-1.837-4.142-4.142s1.837-4.159,4.142-4.159s4.159,1.837,4.159,4.142H193.861z"
				/>
			<path class="st8" d="M204.481,126.361c0-0.559-0.468-1.026-1.026-1.026s-1.008,0.468-1.008,1.026
				c0,0.558,0.449,1.008,1.008,1.008c1.314,0,2.503,0.63,3.259,1.603c0.576,0.72,0.9,1.62,0.9,2.61c0,2.305-1.854,4.142-4.159,4.142
				s-4.159-1.818-4.159-4.195h3.151c0,0.576,0.449,1.026,1.008,1.026s1.026-0.45,1.026-1.008c0-0.559-0.468-1.026-1.026-1.026
				c-2.305,0-4.142-1.837-4.142-4.142s1.837-4.159,4.142-4.159s4.159,1.837,4.159,4.142H204.481z"/>
		</g>
		<line class="st9" x1="117.093" y1="106.457" x2="96.093" y2="106.457"/>
		<line class="st9" x1="117.093" y1="116.207" x2="106.593" y2="116.207"/>
		<line class="st9" x1="117.093" y1="125.957" x2="96.093" y2="125.957"/>
	</g>
</g>
</svg>
