<?xml version="1.0" encoding="utf-8"?>
<!-- Generator: Adobe Illustrator 20.1.0, SVG Export Plug-In . SVG Version: 6.00 Build 0)  -->
<svg version="1.1" xmlns="http://www.w3.org/2000/svg" xmlns:xlink="http://www.w3.org/1999/xlink" x="0px" y="0px"
	 viewBox="0 0 488.186 325.457" style="enable-background:new 0 0 488.186 325.457;" xml:space="preserve">
<style type="text/css">
	.st0{fill:#FFFFFF;stroke:#00BCD4;stroke-width:4.0613;stroke-miterlimit:10;}
	.st1{fill:url(#);}
	.st2{fill:#FFCDD2;}
	.st3{fill:#F44336;}
	.st4{fill:#FFFFFF;stroke:#00BCD4;stroke-width:3.5009;stroke-miterlimit:10;}
	.st5{fill:#FFFFFF;stroke:#00BCD4;stroke-width:3;stroke-miterlimit:10;}
	.st6{fill:none;stroke:#00BCD4;stroke-width:3;stroke-miterlimit:10;}
	.st7{fill:#FFFFFF;stroke:#00BCD4;stroke-width:4;stroke-miterlimit:10;}
	.st8{fill:#00BCD4;}
	.st9{fill:none;stroke:#00BCD4;stroke-width:2;stroke-miterlimit:10;}
	.st10{fill:#FFFFFF;stroke:#00BCD4;stroke-width:2.8287;stroke-miterlimit:10;}
	.st11{fill:#FFFFFF;stroke:#00BCD4;stroke-width:2.4239;stroke-miterlimit:10;}
	.st12{fill:none;stroke:#00BCD4;stroke-width:2.4239;stroke-miterlimit:10;}
	.st13{fill:#FFE0B2;}
	.st14{fill:#FFFFFF;stroke:#00BCD4;stroke-width:1.3672;stroke-miterlimit:10;}
	.st15{fill:#FFFFFF;stroke:#00BCD4;stroke-width:1.1715;stroke-miterlimit:10;}
	.st16{fill:none;stroke:#00BCD4;stroke-width:1.1715;stroke-miterlimit:10;}
	.st17{fill:#FFFFFF;stroke:#00BCD4;stroke-miterlimit:10;}
</style>
<g id="Layer_2">
</g>
<g id="Layer_1">
	<g>
		<g>
			<path class="st5" d="M378.093,254.395h-268c-12.703,0-23-10.297-23-23V94.062c0-12.703,10.297-23,23-23h268
				c12.703,0,23,10.297,23,23v137.333C401.093,244.098,390.795,254.395,378.093,254.395z"/>
			<path class="st6" d="M358.118,233.58h-29.617c-2.748,0-4.975-2.227-4.975-4.975v-13.152c0-2.748,2.227-4.975,4.975-4.975h29.617
				c2.748,0,4.975,2.227,4.975,4.975v13.152C363.093,231.353,360.866,233.58,358.118,233.58z"/>
			<g>
				<g>
					<path class="st8" d="M114.405,184.146l4.197-8.995h1.067l4.233,8.995h-2.362l-0.552-1.176h-3.682l-0.54,1.176H114.405z
						 M118.23,180.979h1.835L119.154,179L118.23,180.979z"/>
					<path class="st8" d="M131.057,180.943l-1.487,3.202h-1.703l-4.149-8.995h2.591l2.542,5.505l1.716-3.742h0.995l1.715,3.742
						l2.555-5.505h2.591l-4.162,8.995h-1.703L131.057,180.943z"/>
					<path class="st8" d="M139.461,175.15h5.589v1.955h-3.227v1.463h2.854v1.991h-2.854v1.655h3.227v1.931h-5.589V175.15z"/>
					<path class="st8" d="M150.055,177.909c0-0.372-0.313-0.684-0.684-0.684c-0.372,0-0.672,0.312-0.672,0.684
						c0,0.371,0.3,0.672,0.672,0.672c0.875,0,1.667,0.419,2.171,1.067c0.384,0.479,0.6,1.079,0.6,1.738
						c0,1.535-1.235,2.759-2.771,2.759s-2.771-1.211-2.771-2.795h2.099c0,0.384,0.3,0.684,0.672,0.684
						c0.371,0,0.684-0.3,0.684-0.671c0-0.372-0.313-0.684-0.684-0.684c-1.535,0-2.759-1.224-2.759-2.759s1.224-2.771,2.759-2.771
						s2.771,1.224,2.771,2.759H150.055z"/>
					<path class="st8" d="M158.01,175.15c2.482,0,4.498,2.027,4.498,4.51s-2.016,4.485-4.498,4.485s-4.485-2.003-4.485-4.485
						S155.527,175.15,158.01,175.15z M158.01,177.501c-1.175,0-2.135,0.96-2.135,2.147c0,1.175,0.96,2.146,2.135,2.146
						c1.188,0,2.146-0.972,2.146-2.146C160.156,178.461,159.197,177.501,158.01,177.501z"/>
					<path class="st8" d="M168.894,178.484l3.658-3.334h1.067v8.995h-2.375v-4.617l-2.351,2.146l-2.362-2.135v4.605h-2.375v-8.995
						h1.067L168.894,178.484z"/>
					<path class="st8" d="M175.437,175.15h5.589v1.955h-3.227v1.463h2.854v1.991h-2.854v1.655h3.227v1.931h-5.589V175.15z"/>
					<path class="st8" d="M188.12,175.15h3.334c2.482,0,4.497,2.015,4.497,4.498c0,2.482-2.015,4.497-4.497,4.497h-3.334V175.15z
						 M190.471,181.818h0.995c1.176,0,2.135-0.959,2.135-2.135c0-1.163-0.959-2.122-2.135-2.122h-0.995V181.818z"/>
					<path class="st8" d="M199.951,180.56c0,0.647,0.527,1.175,1.175,1.175s1.176-0.527,1.176-1.175v-5.409h2.374v5.445
						c0,1.979-1.595,3.55-3.55,3.55c-1.979,0-3.55-1.571-3.55-3.55v-5.445h2.375V180.56z"/>
					<path class="st8" d="M206.479,175.15h3.334c2.483,0,4.498,2.015,4.498,4.498c0,2.482-2.015,4.497-4.498,4.497h-3.334V175.15z
						 M208.83,181.818h0.996c1.175,0,2.135-0.959,2.135-2.135c0-1.163-0.96-2.122-2.135-2.122h-0.996V181.818z"/>
					<path class="st8" d="M215.948,175.15h5.589v1.955h-3.227v1.463h2.854v1.991h-2.854v1.655h3.227v1.931h-5.589V175.15z"/>
				</g>
				<g>
					<path class="st8" d="M116.144,189.15h2.363v8.995h-2.363V189.15z"/>
					<path class="st8" d="M124.759,193c0.228-0.275,0.396-0.575,0.396-0.923c0-0.456-0.432-1.031-1.067-1.031
						c-0.576,0-1.044,0.467-1.044,1.067h-1.931c0-1.535,1.199-2.963,3.046-2.963c1.752,0,2.915,1.535,2.915,2.998
						c0,0.936-0.54,1.655-0.54,1.655l-1.715,2.435h2.543v1.907h-6.225L124.759,193z"/>
					<path class="st8" d="M131.251,195.938c0,0.013,0.252,0.324,0.828,0.324c0.575,0,0.972-0.516,0.972-1.02
						s-0.349-1.092-0.984-1.092c-0.635,0-0.815,0.324-0.815,0.324l-1.343-1.355l1.439-2.074h-1.859v-1.896h5.505l-2.255,3.202
						c0,0,2.195,0.552,2.195,2.879c0,1.799-1.499,2.914-2.854,2.914s-2.171-0.84-2.171-0.852S131.251,195.927,131.251,195.938z"/>
					<path class="st8" d="M142.002,194.332h1.654v1.906h-1.654v1.907h-1.896v-1.907h-4.113v-1.919l3.622-5.169h2.387V194.332z
						 M140.106,194.332v-2.567l-1.799,2.567H140.106z"/>
					<path class="st8" d="M149.48,192.148h4.726v1.896h-4.726V192.148z"/>
					<path class="st8" d="M161.024,194.092v-4.941h5.673v1.907h-3.778v1.211h1.044c1.619,0,2.938,1.319,2.938,2.938
						s-1.319,2.938-2.938,2.938s-2.938-1.319-2.938-2.938v-0.06h1.883c0,0.587,0.468,1.043,1.056,1.043
						c0.575,0,1.043-0.468,1.043-1.056c0-0.575-0.468-1.043-1.043-1.043H161.024z"/>
					<path class="st8" d="M169.256,193.576l2.566-4.426h2.207l-1.799,3.106c1.403,0.228,2.494,1.463,2.494,2.927
						c0,1.631-1.331,2.962-2.962,2.962c-1.632,0-2.963-1.331-2.963-2.962C168.8,194.596,168.968,194.056,169.256,193.576z
						 M171.763,196.238c0.575,0,1.055-0.468,1.055-1.055c0-0.576-0.479-1.056-1.055-1.056c-0.588,0-1.056,0.479-1.056,1.056
						C170.707,195.771,171.175,196.238,171.763,196.238z"/>
					<path class="st8" d="M183.028,189.15v1.931l-4.078,7.064h-2.183l4.09-7.076h-4.785v-1.919H183.028z"/>
					<path class="st8" d="M187.35,189.15c1.38,0,2.507,1.128,2.507,2.507c0,0.539-0.168,1.031-0.456,1.439
						c0.552,0.527,0.9,1.283,0.9,2.11c0,1.631-1.319,2.938-2.951,2.938c-1.631,0-2.938-1.308-2.938-2.938
						c0-0.827,0.336-1.583,0.888-2.11c-0.275-0.408-0.443-0.9-0.443-1.439C184.855,190.278,185.971,189.15,187.35,189.15z
						 M187.35,196.251c0.576,0,1.056-0.468,1.056-1.044c0-0.563-0.456-1.031-1.02-1.056h-0.084
						c-0.552,0.024-0.995,0.492-0.995,1.056C186.307,195.783,186.774,196.251,187.35,196.251z M187.35,192.257
						c0.336,0,0.6-0.252,0.6-0.588s-0.264-0.6-0.6-0.6s-0.587,0.264-0.587,0.6S187.014,192.257,187.35,192.257z"/>
					<path class="st8" d="M197.012,192.148h4.726v1.896h-4.726V192.148z"/>
					<path class="st8" d="M211.038,194.991c-1.392-0.216-2.471-1.439-2.471-2.902c0-1.619,1.319-2.938,2.938-2.938
						s2.938,1.319,2.938,2.938c0,0.552-0.156,1.067-0.42,1.511l-2.614,4.546h-2.184L211.038,194.991z M211.506,193.181
						c0.588,0,1.056-0.456,1.056-1.056c0-0.588-0.468-1.056-1.056-1.056c-0.6,0-1.056,0.468-1.056,1.056
						C210.45,192.725,210.906,193.181,211.506,193.181z"/>
					<path class="st8" d="M217.447,189.15h2.362v8.995h-2.362V189.15z"/>
					<path class="st8" d="M222.583,192.089c0-1.619,1.308-2.938,2.938-2.938c1.619,0,2.951,1.319,2.951,2.95v3.106
						c0,1.631-1.319,2.938-2.951,2.938c-1.631,0-2.938-1.308-2.938-2.938V192.089z M224.467,195.195
						c0,0.588,0.468,1.056,1.055,1.056c0.588,0,1.056-0.468,1.056-1.056v-3.082c0-0.588-0.468-1.056-1.056-1.056
						c-0.587,0-1.055,0.468-1.055,1.043V195.195z"/>
					<path class="st8" d="M231.486,189.15h2.363v8.995h-2.363V189.15z"/>
					<path class="st8" d="M241.424,192.148h4.726v1.896h-4.726V192.148z"/>
					<path class="st8" d="M254.059,189.15h2.362v8.995h-2.362V189.15z"/>
					<path class="st8" d="M260.298,189.15h2.363v8.995h-2.363V189.15z"/>
					<path class="st8" d="M268.913,193c0.228-0.275,0.396-0.575,0.396-0.923c0-0.456-0.432-1.031-1.067-1.031
						c-0.575,0-1.043,0.467-1.043,1.067h-1.931c0-1.535,1.199-2.963,3.046-2.963c1.751,0,2.914,1.535,2.914,2.998
						c0,0.936-0.539,1.655-0.539,1.655l-1.716,2.435h2.543v1.907h-6.225L268.913,193z"/>
					<path class="st8" d="M274.338,189.15h2.363v8.995h-2.363V189.15z"/>
				</g>
			</g>
			<g>
				<path class="st8" d="M115.461,106.396V92.892h5.96c2.161,0,3.997,1.854,3.997,4.015c0,0.919-0.342,1.765-0.864,2.431
					c0.919,0.738,1.531,1.873,1.531,3.098c0,2.143-1.819,3.961-3.962,3.961H115.461z M120.719,98.167
					c0.648,0,1.171-0.522,1.171-1.17c0-0.648-0.522-1.171-1.171-1.171h-1.71v2.341H120.719z M121.385,103.479
					c0.648,0,1.171-0.522,1.171-1.17c0-0.648-0.559-1.171-1.171-1.171h-2.376v2.341H121.385z"/>
				<path class="st8" d="M127.305,106.396l6.302-13.504h1.603l6.356,13.504h-3.548l-0.828-1.765h-5.527l-0.811,1.765H127.305z
					 M133.049,101.642h2.755l-1.369-2.971L133.049,101.642z"/>
				<path class="st8" d="M153.282,106.396l-6.374-6.392v6.392h-3.547V92.892h1.44l6.392,6.374v-6.374h3.547v13.504H153.282z"/>
				<path class="st8" d="M170.509,92.892l-6.157,6.176l7.31,7.328h-5.005l-4.808-4.789l-0.847,0.864v3.925h-3.547V92.892h3.547
					v4.556l4.537-4.556H170.509z"/>
				<path class="st8" d="M187.463,92.892c3.727,0,6.752,3.043,6.752,6.77c0,3.728-3.025,6.734-6.752,6.734
					c-3.728,0-6.734-3.007-6.734-6.734C180.729,95.935,183.735,92.892,187.463,92.892z M187.463,96.421
					c-1.765,0-3.205,1.44-3.205,3.223c0,1.765,1.44,3.223,3.205,3.223c1.782,0,3.223-1.458,3.223-3.223
					C190.686,97.861,189.245,96.421,187.463,96.421z"/>
				<path class="st8" d="M196.676,92.892h8.463v2.917h-4.915v2.196h4.339v3.007h-4.339v5.384h-3.548V92.892z"/>
				<path class="st8" d="M220.744,97.032c0-0.558-0.469-1.025-1.026-1.025c-0.559,0-1.009,0.468-1.009,1.025
					c0,0.559,0.45,1.009,1.009,1.009c1.314,0,2.503,0.63,3.259,1.603c0.576,0.72,0.9,1.62,0.9,2.61c0,2.305-1.854,4.142-4.159,4.142
					s-4.159-1.818-4.159-4.195h3.15c0,0.576,0.45,1.026,1.009,1.026c0.558,0,1.026-0.45,1.026-1.009
					c0-0.558-0.469-1.025-1.026-1.025c-2.305,0-4.142-1.837-4.142-4.142s1.837-4.159,4.142-4.159s4.159,1.836,4.159,4.141H220.744z"
					/>
				<path class="st8" d="M236.225,101.588l-2.232,4.808h-2.557l-6.229-13.504h3.889l3.817,8.265l2.574-5.618h1.495l2.574,5.618
					l3.835-8.265h3.89l-6.248,13.504h-2.557L236.225,101.588z"/>
				<path class="st8" d="M248.821,92.892h8.391v2.935h-4.843v2.197h4.285v2.988h-4.285v2.485h4.843v2.898h-8.391V92.892z"/>
				<path class="st8" d="M259.748,92.892h8.391v2.935h-4.844v2.197h4.285v2.988h-4.285v2.485h4.844v2.898h-8.391V92.892z"/>
				<path class="st8" d="M270.386,92.873h10.642v3.529h-3.584v9.993h-3.547v-9.993h-3.511V92.873z"/>
				<path class="st8" d="M291.448,97.356c-0.558-0.558-1.351-0.882-2.269-0.882c-1.836,0-3.169,1.332-3.169,3.169
					s1.333,3.169,3.169,3.169c0.918,0,1.711-0.324,2.269-0.9l2.521,2.484c-1.225,1.225-2.917,1.999-4.79,1.999
					c-3.727,0-6.752-3.025-6.752-6.752c0-3.728,3.025-6.752,6.752-6.752c1.854,0,3.529,0.738,4.754,1.963L291.448,97.356z"/>
				<path class="st8" d="M304.498,106.396l-2.088-3.583h-2.197v3.583h-3.547V92.892h5.689c2.737,0,4.97,2.232,4.97,4.97
					c0,1.44-0.63,2.736-1.603,3.637l2.863,4.897H304.498z M300.213,99.752h2.197c1.08,0,1.944-0.847,1.944-1.927
					s-0.864-1.945-1.944-1.945h-2.197V99.752z"/>
				<path class="st8" d="M309.787,106.396l6.302-13.504h1.603l6.356,13.504H320.5l-0.828-1.765h-5.527l-0.811,1.765H309.787z
					 M315.531,101.642h2.755l-1.369-2.971L315.531,101.642z"/>
				<path class="st8" d="M324.655,92.873h10.642v3.529h-3.584v9.993h-3.547v-9.993h-3.511V92.873z"/>
				<path class="st8" d="M337.741,92.892h8.391v2.935h-4.843v2.197h4.285v2.988h-4.285v2.485h4.843v2.898h-8.391V92.892z"/>
			</g>
		</g>
		<g>
			<line class="st6" x1="334.701" y1="210.479" x2="334.701" y2="233.58"/>
			<line class="st6" x1="351.868" y1="210.479" x2="351.868" y2="233.58"/>
		</g>
	</g>
</g>
</svg>
