<?xml version="1.0" encoding="utf-8"?>
<!-- Generator: Adobe Illustrator 20.1.0, SVG Export Plug-In . SVG Version: 6.00 Build 0)  -->
<svg version="1.1" id="Layer_1" xmlns="http://www.w3.org/2000/svg" xmlns:xlink="http://www.w3.org/1999/xlink" x="0px" y="0px"
	 viewBox="0 0 500 500" style="enable-background:new 0 0 500 500;" xml:space="preserve">
<style type="text/css">
	.st0{fill:none;}
	.st1{fill:#F44336;}
	.st2{fill:#FFCDD2;}
	.st3{fill:#FFFFFF;stroke:#00BCD4;stroke-width:3.5009;stroke-miterlimit:10;}
	.st4{fill:none;stroke:#00BCD4;stroke-width:3;stroke-miterlimit:10;}
	.st5{fill:url(#New_Pattern_Swatch_1);}
	.st6{fill:url(#SVGID_1_);}
	.st7{fill:url(#SVGID_2_);}
	.st8{fill:url(#SVGID_3_);}
	.st9{fill:url(#SVGID_4_);}
	.st10{fill:url(#SVGID_5_);}
	.st11{fill:url(#SVGID_6_);}
	.st12{fill:url(#SVGID_7_);}
	.st13{fill:url(#SVGID_8_);}
	.st14{fill:url(#SVGID_9_);}
	.st15{fill:url(#SVGID_10_);}
	.st16{fill:url(#SVGID_11_);}
	.st17{fill:url(#SVGID_12_);}
	.st18{fill:url(#SVGID_13_);}
	.st19{fill:#FFFFFF;stroke:#00BCD4;stroke-width:3;stroke-miterlimit:10;}
	.st20{fill:#FFFFFF;stroke:#00BCD4;stroke-width:4;stroke-miterlimit:10;}
	.st21{fill:#00BCD4;}
	.st22{fill:url(#SVGID_14_);}
	.st23{fill:url(#SVGID_15_);}
	.st24{fill:url(#SVGID_16_);}
	.st25{fill:url(#SVGID_17_);}
	.st26{fill:url(#SVGID_18_);}
	.st27{fill:url(#SVGID_19_);}
	.st28{fill:none;stroke:#00BCD4;stroke-width:2;stroke-miterlimit:10;}
	.st29{fill:#FFFFFF;stroke:#00BCD4;stroke-width:2.8287;stroke-miterlimit:10;}
	.st30{fill:#FFFFFF;stroke:#00BCD4;stroke-width:2.4239;stroke-miterlimit:10;}
	.st31{fill:none;stroke:#00BCD4;stroke-width:2.4239;stroke-miterlimit:10;}
	.st32{fill:url(#SVGID_20_);}
	.st33{fill:url(#SVGID_21_);}
	.st34{fill:url(#SVGID_22_);}
	.st35{fill:url(#SVGID_23_);}
	.st36{fill:url(#SVGID_24_);}
	.st37{fill:url(#SVGID_25_);}
	.st38{fill:url(#SVGID_26_);}
	.st39{fill:url(#SVGID_27_);}
</style>
<pattern  x="-520" width="242" height="43" patternUnits="userSpaceOnUse" id="New_Pattern_Swatch_1" viewBox="0 -43 242 43" style="overflow:visible;">
	<g>
		<rect y="-43" class="st0" width="242" height="43"/>
		<rect y="-43" class="st1" width="242" height="14.333"/>
		<rect y="-28.667" class="st2" width="242" height="14.333"/>
		<rect y="-14.333" class="st1" width="242" height="14.333"/>
	</g>
</pattern>
<rect x="144.583" y="144.583" class="st3" width="210.833" height="210.833"/>
<rect x="159.667" y="159.667" class="st19" width="180.667" height="180.667"/>
<g>
	<line class="st4" x1="207.333" y1="159.667" x2="207.333" y2="340.333"/>
	<line class="st4" x1="292.667" y1="159.667" x2="292.667" y2="340.333"/>
</g>
<polygon class="st20" points="151.667,325.586 324.411,151.517 348,151 348,174.384 174.439,349 152.03,349 "/>
<polygon class="st21" points="163.644,333.333 166.667,336.356 166.667,340.63 163.644,343.652 159.37,343.652 156.348,340.63 
	156.348,336.356 159.37,333.333 "/>
<polygon class="st21" points="340.72,156.257 343.743,159.28 343.743,163.554 340.72,166.576 336.446,166.576 333.424,163.554 
	333.424,159.28 336.446,156.257 "/>
<polygon class="st21" points="154.804,148.257 157.826,151.28 157.826,155.554 154.804,158.576 150.53,158.576 147.507,155.554 
	147.507,151.28 150.53,148.257 "/>
<polygon class="st21" points="349.137,341.841 352.159,344.863 352.159,349.137 349.137,352.159 344.863,352.159 341.841,349.137 
	341.841,344.863 344.863,341.841 "/>
<g>
	
		<pattern  id="SVGID_1_" xlink:href="#New_Pattern_Swatch_1" patternTransform="matrix(0.1494 0.0061 -0.0061 0.1494 -6141.6162 -6111.333)">
	</pattern>
	<polygon class="st6" points="327.648,350.573 327.783,347.286 323.689,348.763 	"/>
	
		<pattern  id="SVGID_2_" xlink:href="#New_Pattern_Swatch_1" patternTransform="matrix(0.1494 0.0061 -0.0061 0.1494 -6141.6162 -6111.333)">
	</pattern>
	<polygon class="st7" points="327.513,353.86 327.648,350.573 323.553,352.05 	"/>
	
		<pattern  id="SVGID_3_" xlink:href="#New_Pattern_Swatch_1" patternTransform="matrix(0.1494 0.0061 -0.0061 0.1494 -6141.6162 -6111.333)">
	</pattern>
	<polygon class="st8" points="327.223,357.047 323.326,358.439 327.25,360.247 327.378,357.146 327.385,356.96 327.513,353.86 
		323.453,355.339 	"/>
	
		<pattern  id="SVGID_4_" xlink:href="#New_Pattern_Swatch_1" patternTransform="matrix(0.1494 0.0061 -0.0061 0.1494 -6141.6162 -6111.333)">
	</pattern>
	<polygon class="st9" points="327.115,363.534 327.25,360.247 323.156,361.724 	"/>
	
		<pattern  id="SVGID_5_" xlink:href="#New_Pattern_Swatch_1" patternTransform="matrix(0.1494 0.0061 -0.0061 0.1494 -6141.6162 -6111.333)">
	</pattern>
	<polygon class="st10" points="326.98,366.821 327.115,363.534 323.02,365.011 	"/>
	
		<pattern  id="SVGID_6_" xlink:href="#New_Pattern_Swatch_1" patternTransform="matrix(0.1494 0.0061 -0.0061 0.1494 -6141.6162 -6111.333)">
	</pattern>
	<polygon class="st11" points="389.632,354.769 385.766,353.002 385.769,352.925 389.317,351.498 385,349.748 385,349.756 
		327.331,347.349 326.751,366.913 384.983,369.3 385.044,369.175 389.071,367.731 385.218,365.964 385.228,365.886 389.231,364.443 
		385.366,362.676 385.37,362.599 389.357,361.155 385.613,359.449 389.486,358.055 385.63,356.289 385.633,356.212 	"/>
</g>
<g>
	<circle class="st2" cx="316.082" cy="358.758" r="23.082"/>
	<g>
		<path class="st1" d="M339,364.91c0-4.125,0-8.249,0-12.374c-3,2.057-12.923,4.276-22.953,6.333
			c10.863-7.677,20.351-15.87,6.221-22.87c-4.124,0-8.249,0-12.373,0c18.25,7,12.94,15.192,6.201,22.87
			c-0.001,0.003-0.041-0.075-0.042-0.073c-5.308-2.06-11.053-4.2-23.053-6.26c0,4.125,0,8.249,0,12.374
			c3-2.058,13.001-3.998,23.03-6.056C305.164,366.531,295.773,374,309.894,382c4.124,0,8.249,0,12.374,0
			c-18.273-8-12.953-15.478-6.219-23.159c0,0-0.048-0.059-0.048-0.059C321.318,360.845,327,362.848,339,364.91z"/>
	</g>
</g>
</svg>
