<?xml version="1.0" encoding="utf-8"?>
<!-- Generator: Adobe Illustrator 20.1.0, SVG Export Plug-In . SVG Version: 6.00 Build 0)  -->
<svg version="1.1" xmlns="http://www.w3.org/2000/svg" xmlns:xlink="http://www.w3.org/1999/xlink" x="0px" y="0px"
	 viewBox="0 0 500 500" style="enable-background:new 0 0 500 500;" xml:space="preserve">
<style type="text/css">
	.st0{fill:none;}
	.st1{fill:#F44336;}
	.st2{fill:#FFCDD2;}
	.st3{fill:#FFFFFF;stroke:#00BCD4;stroke-width:3.5009;stroke-miterlimit:10;}
	.st4{fill:url(#New_Pattern_Swatch_1);}
	.st5{fill:url(#SVGID_1_);}
	.st6{fill:url(#SVGID_2_);}
	.st7{fill:url(#SVGID_3_);}
	.st8{fill:url(#SVGID_4_);}
	.st9{fill:url(#SVGID_5_);}
	.st10{fill:url(#SVGID_6_);}
	.st11{fill:#FFFFFF;stroke:#00BCD4;stroke-width:3;stroke-miterlimit:10;}
	.st12{fill:none;stroke:#00BCD4;stroke-width:3;stroke-miterlimit:10;}
	.st13{fill:#FFFFFF;stroke:#00BCD4;stroke-width:4;stroke-miterlimit:10;}
	.st14{fill:#00BCD4;}
	.st15{fill:url(#SVGID_7_);}
	.st16{fill:url(#SVGID_8_);}
	.st17{fill:url(#SVGID_9_);}
	.st18{fill:url(#SVGID_10_);}
	.st19{fill:url(#SVGID_11_);}
	.st20{fill:url(#SVGID_12_);}
	.st21{fill:url(#SVGID_13_);}
	.st22{fill:url(#SVGID_14_);}
	.st23{fill:url(#SVGID_15_);}
	.st24{fill:url(#SVGID_16_);}
	.st25{fill:url(#SVGID_17_);}
	.st26{fill:url(#SVGID_18_);}
	.st27{fill:url(#SVGID_19_);}
	.st28{fill:none;stroke:#00BCD4;stroke-width:2;stroke-miterlimit:10;}
	.st29{fill:#FFFFFF;stroke:#00BCD4;stroke-width:2.8287;stroke-miterlimit:10;}
	.st30{fill:#FFFFFF;stroke:#00BCD4;stroke-width:2.4239;stroke-miterlimit:10;}
	.st31{fill:none;stroke:#00BCD4;stroke-width:2.4239;stroke-miterlimit:10;}
	.st32{fill:url(#SVGID_20_);}
	.st33{fill:url(#SVGID_21_);}
	.st34{fill:url(#SVGID_22_);}
	.st35{fill:url(#SVGID_23_);}
	.st36{fill:url(#SVGID_24_);}
	.st37{fill:url(#SVGID_25_);}
	.st38{fill:url(#SVGID_26_);}
	.st39{fill:url(#SVGID_27_);}
</style>
<pattern  width="242" height="43" patternUnits="userSpaceOnUse" id="New_Pattern_Swatch_1" viewBox="0 -43 242 43" style="overflow:visible;">
	<g>
		<rect y="-43" class="st0" width="242" height="43"/>
		<rect y="-43" class="st1" width="242" height="14.333"/>
		<rect y="-28.667" class="st2" width="242" height="14.333"/>
		<rect y="-14.333" class="st1" width="242" height="14.333"/>
	</g>
</pattern>
<g id="Layer_2">
</g>
<g id="Layer_1">
	<g>
		<polyline class="st12" points="100.5,144.5 163.667,174.667 171,152 334.667,152 344.333,174.667 399.5,149 		"/>
		<g>
			<circle class="st2" cx="295.815" cy="166.491" r="45.815"/>
			<g>
				<path class="st1" d="M341,178.704c0-8.187,0-16.374,0-24.561c-6,4.083-25.499,8.327-45.407,12.41
					C317.156,151.315,336.142,136,308.094,121c-8.187,0-16.374,0-24.561,0c36.224,15,25.686,30.315,12.308,45.554
					c-0.001,0.006-0.082-0.07-0.083-0.064C285.221,162.402,274,158.233,250,154.144c0,8.187,0,16.374,0,24.561
					c7-4.085,25.807-8.249,45.712-12.334C274.145,181.607,255.505,197,283.533,212c8.187,0,16.374,0,24.561,0
					c-36.271-15-25.712-30.41-12.344-45.655c0,0-0.249,0.04-0.249,0.04C306.055,170.478,318,174.611,341,178.704z"/>
			</g>
		</g>
		
			<pattern  id="SVGID_1_" xlink:href="#New_Pattern_Swatch_1" patternTransform="matrix(0.9968 -0.0796 0.0796 0.9968 60.0614 -490.0135)">
		</pattern>
		<path class="st5" d="M130.306,145.863c-0.833,5.991-24.45,8.617-23.924,1.911c0,0,1.396-55.788,40.189-58.887
			c38.793-3.099,45.581,27.458,45.581,27.458c2.995,4.526,18.893,169.534,13.576,169.959c0.425,5.316-17.518,6.75-17.943,1.433
			c8.633-28.098,4.231-104.436-10.19-147.758C163.514,97.679,134.286,86.885,130.306,145.863z"/>
		<g>
			
				<pattern  id="SVGID_2_" xlink:href="#New_Pattern_Swatch_1" patternTransform="matrix(0.0342 -0.2978 0.2978 0.0342 -5276.6235 -9210.0186)">
			</pattern>
			<polygon class="st6" points="206.638,231.209 200.087,230.458 202.442,238.86 			"/>
			
				<pattern  id="SVGID_3_" xlink:href="#New_Pattern_Swatch_1" patternTransform="matrix(0.0342 -0.2978 0.2978 0.0342 -5276.6235 -9210.0186)">
			</pattern>
			<polygon class="st7" points="213.19,231.961 206.638,231.209 208.993,239.612 			"/>
			
				<pattern  id="SVGID_4_" xlink:href="#New_Pattern_Swatch_1" patternTransform="matrix(0.0342 -0.2978 0.2978 0.0342 -5276.6235 -9210.0186)">
			</pattern>
			<polygon class="st8" points="219.519,233.007 221.732,241.002 225.921,233.421 219.741,232.712 219.369,232.669 213.19,231.961 
				215.553,240.293 			"/>
			
				<pattern  id="SVGID_5_" xlink:href="#New_Pattern_Swatch_1" patternTransform="matrix(0.0342 -0.2978 0.2978 0.0342 -5276.6235 -9210.0186)">
			</pattern>
			<polygon class="st9" points="232.472,234.172 225.921,233.421 228.276,241.823 			"/>
			
				<pattern  id="SVGID_6_" xlink:href="#New_Pattern_Swatch_1" patternTransform="matrix(0.0342 -0.2978 0.2978 0.0342 -5276.6235 -9210.0186)">
			</pattern>
			<polygon class="st10" points="239.024,234.923 232.472,234.172 234.827,242.574 			"/>
			
				<pattern  id="SVGID_7_" xlink:href="#New_Pattern_Swatch_1" patternTransform="matrix(0.0342 -0.2978 0.2978 0.0342 -5276.6235 -9210.0186)">
			</pattern>
			<polygon class="st15" points="224.098,107.903 220,115.374 219.847,115.357 217.547,107.152 213.449,114.623 213.466,114.625 
				200.181,230.469 239.192,234.943 252.478,119.099 252.232,119.071 249.932,110.866 245.834,118.337 245.681,118.32 
				243.381,110.114 239.283,117.586 239.129,117.568 236.826,109.386 232.866,116.622 230.647,108.676 226.552,116.126 
				226.398,116.108 			"/>
		</g>
		<rect x="163.667" y="174.667" class="st11" width="180.667" height="180.667"/>
		<g>
			<line class="st28" x1="316.751" y1="350.249" x2="339.333" y2="327.667"/>
			<line class="st28" x1="325.758" y1="349.242" x2="338.325" y2="336.675"/>
			<line class="st28" x1="333.047" y1="349.953" x2="339.036" y2="343.964"/>
		</g>
	</g>
</g>
</svg>
