<?xml version="1.0" encoding="utf-8"?>
<!-- Generator: Adobe Illustrator 20.1.0, SVG Export Plug-In . SVG Version: 6.00 Build 0)  -->
<svg version="1.1" id="Layer_1" xmlns="http://www.w3.org/2000/svg" xmlns:xlink="http://www.w3.org/1999/xlink" x="0px" y="0px"
	 viewBox="0 0 1657.519 302.222" style="enable-background:new 0 0 1657.519 302.222;" xml:space="preserve">
<style type="text/css">
	.st0{fill:#333;}
</style>
<g>
	<g>
		<path class="st0" d="M1004.634,163.062c-6.537-6.536-15.813-10.331-26.567-10.331c-21.506,0-37.108,15.603-37.108,37.108
			c0,21.507,15.603,37.109,37.108,37.109c10.754,0,20.03-3.796,26.567-10.543l29.518,29.097
			c-14.337,14.338-34.156,23.404-56.085,23.404c-43.645,0-79.066-35.422-79.066-79.067c0-43.645,35.422-79.067,79.066-79.067
			c21.718,0,41.326,8.645,55.664,22.982L1004.634,163.062z"/>
		<path class="st0" d="M1157.497,268.906l-24.458-41.958h-25.724v41.958h-41.536V110.771h66.627
			c32.049,0,58.193,26.146,58.193,58.193c0,16.868-7.379,32.049-18.765,42.592l33.524,57.35H1157.497z M1107.315,191.104h25.724
			c12.65,0,22.771-9.91,22.771-22.561c0-12.651-10.121-22.771-22.771-22.771h-25.724V191.104z"/>
		<path class="st0" d="M1219.483,268.906l73.796-158.135h18.765l74.429,158.135h-41.536l-9.699-20.663h-64.729l-9.488,20.663
			H1219.483z M1286.743,213.243h32.259l-16.024-34.79L1286.743,213.243z"/>
		<path class="st0" d="M1393.645,110.561h124.61v41.326h-41.958v117.02h-41.537v-117.02h-41.115V110.561z"/>
		<path class="st0" d="M1546.932,110.771h98.254v34.368h-56.718v25.724h50.182v35h-50.182v29.097h56.718v33.946h-98.254V110.771z"/>
	</g>
	<g>
		<path class="st0" d="M115.014,71.749c-4.399-11.875-12.126-22.374-22.826-29.349c-10.422-6.794-22.33-10.837-34.874-10.462
			C33.698,32.644,13.741,51.35,8.509,73.898c-2.916,12.567-0.885,25.33,4.457,36.949c5.275,11.475,14.04,21.038,23.403,29.322
			c8.4,7.432,17.74,13.594,26.949,19.95c4.622,3.189,9.193,6.459,13.59,9.952c2.229,1.771,4.413,3.599,6.529,5.504
			c0.467,0.42,0.93,0.844,1.39,1.272c0.371,0.345,2.03,1.93,0.443,0.406c-1.663-1.597,0.262,0.282,0.625,0.652
			c0.507,0.516,1.007,1.039,1.501,1.567c1.887,2.017,3.681,4.122,5.344,6.328c0.366,0.486,0.726,0.976,1.079,1.472
			c0.176,0.247,0.345,0.5,0.523,0.746c0.738,1.02-0.979-1.555-0.924-1.383c0.387,1.204,1.57,2.494,2.198,3.615
			c0.64,1.142,1.239,2.307,1.795,3.492c0.257,0.548,0.505,1.101,0.743,1.657c1.022,2.389-0.842-2.353,0.018,0.041
			c0.9,2.507,1.61,5.085,2.074,7.709c0.452,2.551-0.188-1.924-0.018-0.067c0.056,0.609,0.125,1.216,0.169,1.827
			c0.103,1.423,0.138,2.851,0.108,4.277c-0.013,0.611-0.038,1.223-0.075,1.833c-0.018,0.305-0.049,0.61-0.065,0.915
			c-0.069,1.328,0.273-2.143,0.09-0.825c-0.183,1.316-0.364,2.627-0.627,3.93c-0.55,2.725-1.404,5.319-2.304,7.943
			c-0.351,1.022,0.412-0.982,0.391-0.943c-0.14,0.268-0.241,0.568-0.363,0.846c-0.288,0.655-0.588,1.305-0.904,1.948
			c-0.63,1.284-1.316,2.542-2.054,3.767c-1.371,2.276-2.933,4.421-4.645,6.452c0.55-0.646,1.101-1.292,1.651-1.938
			c-3.219,3.721-6.936,6.901-11.153,9.441c0.732-0.429,1.464-0.858,2.197-1.287c-3.66,2.135-7.578,3.77-11.681,4.836
			c-0.389,0.101-0.781,0.189-1.171,0.289c-2.105,0.54,2.28-0.396,0.135-0.04c-0.994,0.165-1.986,0.33-2.987,0.45
			c-2.005,0.241-4.025,0.361-6.044,0.365c-1.014,0.002-2.023-0.045-3.035-0.081c-2.212-0.079,2.43,0.289,0.234,0.007
			c-0.402-0.051-0.807-0.086-1.21-0.136c-2.217-0.273-4.418-0.686-6.583-1.233c-0.986-0.249-1.957-0.543-2.933-0.828
			c-1.702-0.498,0.816,0.251,0.942,0.32c-0.508-0.278-1.172-0.423-1.715-0.634c-1.986-0.774-3.925-1.667-5.802-2.677
			c-0.447-0.24-0.884-0.498-1.329-0.74c-1.625-0.883,0.913,0.586,0.99,0.625c-0.887-0.451-1.717-1.112-2.526-1.691
			c-0.824-0.589-1.63-1.205-2.417-1.844c-0.861-0.7-3.794-3.75-0.891-0.63c-1.385-1.488-2.802-2.914-4.072-4.508
			c-0.63-0.79-1.219-1.607-1.817-2.421c-0.512-0.697-0.956-1.847,0.752,1.138c-0.349-0.61-0.76-1.19-1.122-1.794
			c-0.984-1.644-1.878-3.34-2.682-5.079c-0.254-0.55-0.485-1.11-0.735-1.661c-0.761-1.678,0.377,1.023,0.413,1.103
			c-0.493-1.091-0.842-2.293-1.201-3.435c-0.608-1.933-1.116-3.898-1.52-5.883c-0.176-0.863-0.607-4.388-0.207-0.808
			c-0.124-1.111-0.281-2.216-0.376-3.332c-0.198-2.331-0.262-4.672-0.188-7.01c0.037-1.173,0.32-2.495,0.226-3.654
			c0.014,0.175-0.318,2.527-0.074,0.833c0.102-0.704,0.188-1.41,0.302-2.113c0.371-2.307,0.879-4.592,1.527-6.837
			c0.338-1.171,0.714-2.331,1.128-3.477c0.136-0.376,0.316-0.76,0.427-1.142c-0.816,2.818-0.084,0.235,0.219-0.443
			c2.411-5.41,0.572-11.945-4.339-15.445c-2.236-1.593-5.055-2.993-7.89-2.658c-2.402,0.284-5.279,1.359-6.346,3.755
			c-6.057,13.589-7.54,28.107-4.791,42.71c2.778,14.757,10.736,28.268,21.967,38.153c21.117,18.586,56.479,21.483,78.158,2.295
			c10.331-9.144,17.199-22.39,18.669-36.106c0.822-7.668,0.446-15.28-1.724-22.731c-2.252-7.736-5.954-14.604-10.51-21.192
			c-15.396-22.26-40.812-33.647-60.874-50.8c-1.205-1.03-2.392-2.082-3.557-3.157c-0.232-0.214-0.462-0.431-0.694-0.645
			c-1.435-1.324,0.899,0.828,0.921,0.9c-0.17-0.551-1.597-1.584-1.997-1.995c-2.231-2.293-4.35-4.697-6.302-7.233
			c-0.435-0.565-0.861-1.137-1.279-1.716c-0.178-0.247-0.353-0.497-0.531-0.745c-1.116-1.546,0.72,1.067,0.745,1.131
			c-0.531-1.413-1.769-2.802-2.504-4.139c-0.726-1.32-1.398-2.668-2.012-4.044c-0.123-0.275-0.239-0.553-0.362-0.828
			c-0.78-1.748,0.45,1.118,0.417,1.111c-0.234-0.051-0.833-2.349-0.903-2.567c-0.466-1.452-0.864-2.927-1.188-4.417
			c-0.153-0.705-0.266-1.417-0.41-2.124c-0.24-1.183,0.199,1.473,0.193,1.343c-0.027-0.568-0.14-1.152-0.19-1.719
			c-0.119-1.335-0.171-2.676-0.157-4.016c0.008-0.764,0.036-1.528,0.086-2.291c0.018-0.286,0.047-0.571,0.065-0.857
			c0.081-1.263-0.315,2.42-0.055,0.659c0.433-2.943,1.073-5.826,2.031-8.646c0.208-0.613,0.576-1.261,0.687-1.893
			c-0.337,1.901-0.662,1.553-0.305,0.768c0.159-0.35,0.308-0.704,0.468-1.053c0.641-1.398,1.349-2.765,2.12-4.096
			c1.447-2.501,3.122-4.853,4.972-7.071c-0.55,0.646-1.101,1.292-1.651,1.938c3.377-3.951,7.303-7.332,11.762-10.007
			c-0.732,0.429-1.464,0.858-2.197,1.287c2.068-1.204,4.211-2.259,6.449-3.108c1.077-0.409,2.171-0.771,3.279-1.086
			c0.554-0.157,1.117-0.28,1.671-0.435c1.028-0.286-1.185,0.234-1.102,0.225c0.375-0.043,0.75-0.144,1.122-0.207
			c2.336-0.397,4.707-0.585,7.077-0.578c0.568,0.002,1.136,0.015,1.704,0.039c0.282,0.012,0.569,0.046,0.851,0.043
			c0.123-0.001-2.342-0.225-1.242-0.086c1.225,0.155,2.446,0.28,3.663,0.496c1.122,0.199,2.237,0.44,3.342,0.72
			c0.553,0.14,1.104,0.291,1.651,0.451c0.274,0.08,0.545,0.172,0.819,0.249c1.287,0.357-2.3-0.829-1.051-0.356
			c2.326,0.881,4.601,1.818,6.799,2.991c0.505,0.269,1.005,0.548,1.5,0.834c0.217,0.126,0.5,0.367,0.739,0.436
			c0.152,0.044-2.308-1.477-1.341-0.808c1.02,0.705,2.055,1.378,3.045,2.127c0.91,0.689,1.795,1.411,2.653,2.164
			c0.416,0.365,0.811,0.838,1.265,1.151c0.198,0.137-2.132-2.13-1.269-1.212c0.26,0.276,0.532,0.541,0.794,0.816
			c0.913,0.963,1.784,1.965,2.608,3.006c0.412,0.519,0.812,1.048,1.2,1.585c0.166,0.23,0.324,0.467,0.491,0.697
			c0.845,1.168-1.557-2.464-0.831-1.218c0.67,1.149,1.365,2.27,1.967,3.458c0.3,0.593,0.587,1.193,0.858,1.801
			c0.116,0.26,0.22,0.528,0.34,0.786c0.544,1.173-1.113-2.944-0.364-0.923c1.12,3.024,2.531,5.617,5.155,7.632
			c2.035,1.564,5.233,2.972,7.89,2.658C113.298,82.673,117.011,77.139,115.014,71.749L115.014,71.749z"/>
	</g>
	<g>
		<path class="st0" d="M410.794,170.627c14.656,13.441,33.712,22.284,53.086,26.335c19.954,4.173,40.621,4.015,60.173-2.103
			c17.702-5.54,34.409-16.348,44.008-32.524c4.732-7.973,6.798-17.025,5.576-26.25c-1.201-9.069-6.155-17.629-12.612-23.991
			c-17.929-17.665-45.876-22.656-69.48-14.911c-20.211,6.632-35.14,22.527-45.38,40.63c-10.355,18.305-16.403,39.222-15.069,60.345
			c1.277,20.229,10.902,38.313,26.52,51.132c17.274,14.179,40.41,21.15,62.61,19.461c19.055-1.45,37.916-10.882,50.127-25.636
			c3.042-3.675,5.681-7.704,7.923-11.913c0.776-1.456-1.682-3.693-2.461-4.315c-2.113-1.687-5.163-2.935-7.752-3.567
			c-3.619-0.884-10.569-2.334-12.774,1.807c-0.792,1.488-1.636,2.942-2.534,4.369c0.25-0.393,0.501-0.786,0.751-1.179
			c-2.848,4.425-6.199,8.495-10.015,12.121c-1.831,1.739-3.759,3.374-5.772,4.899c-1.007,0.763-2.035,1.498-3.083,2.204
			c-0.524,0.353-1.053,0.699-1.586,1.038c-0.187,0.119-2.275,1.383-1.24,0.781c-4.541,2.64-9.443,4.716-14.474,6.216
			c-0.605,0.18-1.215,0.34-1.821,0.515c-2.048,0.592,1.694-0.337-0.392,0.1c-1.235,0.259-2.465,0.523-3.71,0.73
			c-1.243,0.207-2.493,0.378-3.747,0.512c-0.627,0.067-1.256,0.112-1.883,0.172c-1.051,0.072-0.839,0.063,0.638-0.028
			c-0.42,0.019-0.841,0.034-1.261,0.045c-1.263,0.032-2.527,0.025-3.79-0.022c-0.599-0.022-1.233-0.122-1.831-0.096
			c3.142-0.136,1.369,0.124,0.442,0.024c-1.213-0.131-2.422-0.297-3.624-0.499c-0.6-0.101-1.198-0.236-1.799-0.328
			c4.042,0.624,1.065,0.205,0.127-0.027c-1.185-0.293-2.353-0.636-3.524-0.978c-2.272-0.664,2.914,1.037,0.693,0.22
			c-0.573-0.21-1.149-0.409-1.719-0.626c-1.142-0.434-2.262-0.915-3.386-1.392c-2.104-0.894,2.442,1.219,0.402,0.185
			c-0.726-0.368-1.457-0.725-2.177-1.108c-1.079-0.573-2.142-1.176-3.189-1.805c-0.487-0.293-1.031-0.761-1.558-0.966
			c2.217,0.862,0.844,0.541,0.09,0.021c-2.18-1.502-4.273-3.129-6.266-4.871c-0.44-0.384-0.989-0.775-1.363-1.224
			c1.327,1.594,0.081,0.073-0.227-0.232c-0.867-0.859-1.71-1.741-2.529-2.646c-1.773-1.959-3.43-4.022-4.955-6.18
			c-0.822-1.163-1.582-2.361-2.345-3.563c-1.066-1.68,0.571,1.107-0.378-0.642c-0.388-0.715-0.779-1.427-1.148-2.153
			c-1.412-2.779-2.607-5.667-3.599-8.622c-2.1-6.257-3.227-12.776-3.603-19.357c0.023,0.465,0.047,0.931,0.07,1.396
			c-1.076-22.278,6.418-44.586,18.204-63.293c-0.25,0.393-0.501,0.786-0.751,1.179c4.699-7.356,10.215-14.205,16.782-19.981
			c3.198-2.813,6.63-5.386,10.288-7.573c1.125-0.673-1.325,0.692,0.665-0.376c0.413-0.222,0.823-0.448,1.238-0.665
			c0.935-0.489,1.882-0.954,2.839-1.397c2.021-0.935,4.09-1.766,6.198-2.484c1.107-0.377,2.225-0.724,3.352-1.037
			c0.45-0.125,0.902-0.246,1.355-0.36c-1.536,0.389-0.326,0.084-0.012,0.025c2.292-0.431,4.565-0.848,6.891-1.062
			c0.159-0.015,2.427-0.095,0.817-0.074c-1.621,0.021,0.674,0,0.819-0.002c0.925-0.012,1.85,0,2.774,0.037
			c0.276,0.011,2.571,0.207,0.638,0.013c-1.941-0.196,0.367,0.057,0.632,0.09c1.069,0.133,4.735,1.023,1.005,0.058
			c1.013,0.262,2.035,0.472,3.043,0.76c0.996,0.285,2.14,1.068-0.897-0.318c0.368,0.168,0.796,0.281,1.171,0.423
			c0.492,0.186,3.408,1.457,1.561,0.605c-1.828-0.843,0.078,0.061,0.373,0.214c0.554,0.287,1.103,0.586,1.644,0.897
			c0.361,0.207,0.716,0.424,1.075,0.637c1.564,0.927-0.56-0.288-0.548-0.361c-0.02,0.116,2.343,1.684,2.531,1.83
			c0.657,0.511,1.3,1.04,1.927,1.587c0.056,0.049,1.556,1.442,0.612,0.534c-0.865-0.832,0.613,0.636,0.777,0.809
			c1.5,1.57,2.883,3.251,4.128,5.031c0.236,0.337,0.467,0.679,0.693,1.023c0.144,0.22,1.007,1.613,0.435,0.639
			c0.569,0.97,1.076,1.983,1.547,3.004c1.854,4.018,2.947,8.308,3.244,12.721c-0.023-0.465-0.047-0.931-0.07-1.396
			c0.417,8.586-2.269,16.75-6.842,23.949c0.25-0.393,0.501-0.786,0.751-1.179c-5.489,8.418-13.065,15.041-21.551,20.316
			c-1.712,1.064,1.096-0.58-0.647,0.379c-0.354,0.195-0.705,0.393-1.06,0.587c-1.063,0.579-2.138,1.135-3.224,1.669
			c-2.168,1.066-4.38,2.042-6.627,2.929c-2.245,0.885-4.525,1.681-6.833,2.387c-0.961,0.294-1.928,0.572-2.898,0.835
			c-0.579,0.157-1.164,0.333-1.751,0.457c2.21-0.464-0.466,0.091-0.882,0.181c-4.734,1.028-9.52,1.649-14.347,2.014
			c-2.083,0.158,1.801-0.068,0.412-0.025c-0.504,0.016-1.008,0.042-1.512,0.057c-1.21,0.036-2.421,0.051-3.631,0.044
			c-2.428-0.014-4.837-0.217-7.259-0.301c3.831,0.131-0.417-0.066-1.345-0.176c-1.203-0.143-2.403-0.307-3.6-0.493
			c-0.997-0.155-1.992-0.324-2.985-0.509c-0.874-0.162-3.084-0.757,0.726,0.164c-0.784-0.19-1.578-0.342-2.363-0.527
			c-2.159-0.509-4.302-1.088-6.423-1.738c-0.856-0.262-2.961-1.116,0.706,0.244c-0.566-0.21-1.146-0.388-1.715-0.589
			c-1.329-0.47-2.648-0.969-3.956-1.496c-1.121-0.452-2.226-0.937-3.334-1.416c-2.086-0.902,2.466,1.201,0.425,0.201
			c-0.723-0.354-1.447-0.703-2.165-1.068c-2.33-1.186-4.61-2.469-6.832-3.846c-0.171-0.107-0.341-0.213-0.512-0.32
			c-0.882-0.56-0.68-0.429,0.604,0.393c-0.512-0.532-1.389-0.928-1.999-1.352c-0.991-0.69-1.968-1.4-2.931-2.129
			c-2.252-1.707-4.412-3.526-6.494-5.436c-1.906-1.748-5.345-2.931-7.752-3.567c-2.528-0.668-5.868-1.226-8.502-0.729
			c-1.548,0.292-3.795,0.73-4.272,2.536C407.858,168.11,409.685,169.61,410.794,170.627L410.794,170.627z"/>
	</g>
	<g>
		<path class="st0" d="M587.002,170.627c14.656,13.441,33.712,22.284,53.086,26.335c19.954,4.173,40.621,4.015,60.173-2.103
			c17.702-5.54,34.409-16.348,44.008-32.524c4.731-7.973,6.798-17.025,5.575-26.25c-1.201-9.069-6.155-17.629-12.612-23.991
			c-17.929-17.665-45.876-22.656-69.48-14.911c-20.211,6.632-35.14,22.527-45.38,40.63c-10.355,18.305-16.403,39.222-15.069,60.345
			c1.277,20.229,10.902,38.313,26.52,51.132c17.274,14.179,40.41,21.15,62.61,19.461c19.055-1.45,37.916-10.882,50.127-25.636
			c3.042-3.675,5.681-7.704,7.923-11.913c0.776-1.456-1.682-3.693-2.461-4.315c-2.113-1.687-5.163-2.935-7.752-3.567
			c-3.619-0.884-10.569-2.334-12.774,1.807c-0.793,1.488-1.636,2.942-2.534,4.369c0.25-0.393,0.501-0.786,0.751-1.179
			c-2.848,4.425-6.199,8.495-10.015,12.121c-1.831,1.739-3.759,3.374-5.772,4.899c-1.007,0.763-2.035,1.498-3.083,2.204
			c-0.524,0.353-1.053,0.699-1.586,1.038c-0.187,0.119-2.275,1.383-1.24,0.781c-4.541,2.64-9.443,4.716-14.474,6.216
			c-0.605,0.18-1.215,0.34-1.821,0.515c-2.048,0.592,1.694-0.337-0.392,0.1c-1.235,0.259-2.465,0.523-3.71,0.73
			c-1.243,0.207-2.493,0.378-3.747,0.512c-0.627,0.067-1.256,0.112-1.883,0.172c-1.051,0.072-0.839,0.063,0.638-0.028
			c-0.42,0.019-0.841,0.034-1.261,0.045c-1.263,0.032-2.527,0.025-3.79-0.022c-0.599-0.022-1.234-0.122-1.831-0.096
			c3.142-0.136,1.369,0.124,0.442,0.024c-1.213-0.131-2.422-0.297-3.624-0.499c-0.6-0.101-1.198-0.236-1.799-0.328
			c4.042,0.624,1.065,0.205,0.127-0.027c-1.185-0.293-2.353-0.636-3.524-0.978c-2.272-0.664,2.914,1.037,0.693,0.22
			c-0.573-0.21-1.149-0.409-1.719-0.626c-1.142-0.434-2.262-0.915-3.386-1.392c-2.104-0.894,2.442,1.219,0.402,0.185
			c-0.726-0.368-1.457-0.725-2.177-1.108c-1.079-0.573-2.142-1.176-3.189-1.805c-0.487-0.293-1.031-0.761-1.558-0.966
			c2.217,0.862,0.844,0.541,0.09,0.021c-2.18-1.502-4.273-3.129-6.266-4.871c-0.44-0.384-0.989-0.775-1.363-1.224
			c1.327,1.594,0.081,0.073-0.227-0.232c-0.867-0.859-1.71-1.741-2.529-2.646c-1.773-1.959-3.43-4.022-4.955-6.18
			c-0.822-1.163-1.582-2.361-2.345-3.563c-1.066-1.68,0.571,1.107-0.378-0.642c-0.388-0.715-0.779-1.427-1.148-2.153
			c-1.412-2.779-2.607-5.667-3.599-8.622c-2.1-6.257-3.227-12.776-3.603-19.357c0.023,0.465,0.047,0.931,0.07,1.396
			c-1.076-22.278,6.418-44.586,18.204-63.293c-0.25,0.393-0.501,0.786-0.751,1.179c4.699-7.356,10.215-14.205,16.782-19.981
			c3.198-2.813,6.63-5.386,10.288-7.573c1.125-0.673-1.325,0.692,0.665-0.376c0.413-0.222,0.823-0.448,1.238-0.665
			c0.935-0.489,1.882-0.954,2.839-1.397c2.021-0.935,4.09-1.766,6.198-2.484c1.107-0.377,2.225-0.724,3.352-1.037
			c0.45-0.125,0.902-0.246,1.355-0.36c-1.536,0.389-0.326,0.084-0.012,0.025c2.292-0.431,4.565-0.848,6.891-1.062
			c0.159-0.015,2.427-0.095,0.817-0.074c-1.621,0.021,0.674,0,0.819-0.002c0.925-0.012,1.85,0,2.774,0.037
			c0.276,0.011,2.571,0.207,0.638,0.013c-1.941-0.196,0.367,0.057,0.632,0.09c1.069,0.133,4.735,1.023,1.005,0.058
			c1.013,0.262,2.035,0.472,3.043,0.76c0.996,0.285,2.14,1.068-0.897-0.318c0.368,0.168,0.796,0.281,1.171,0.423
			c0.492,0.186,3.408,1.457,1.561,0.605c-1.828-0.843,0.078,0.061,0.373,0.214c0.554,0.287,1.103,0.586,1.644,0.897
			c0.361,0.207,0.716,0.424,1.075,0.637c1.564,0.927-0.56-0.288-0.548-0.361c-0.02,0.116,2.343,1.684,2.531,1.83
			c0.657,0.511,1.3,1.04,1.927,1.587c0.056,0.049,1.556,1.442,0.612,0.534c-0.865-0.832,0.613,0.636,0.777,0.809
			c1.5,1.57,2.883,3.251,4.128,5.031c0.236,0.337,0.467,0.679,0.693,1.023c0.144,0.22,1.007,1.613,0.435,0.639
			c0.569,0.97,1.076,1.983,1.547,3.004c1.854,4.018,2.947,8.308,3.244,12.721c-0.023-0.465-0.047-0.931-0.07-1.396
			c0.417,8.586-2.269,16.75-6.842,23.949c0.25-0.393,0.501-0.786,0.751-1.179c-5.489,8.418-13.065,15.041-21.551,20.316
			c-1.712,1.064,1.096-0.58-0.648,0.379c-0.354,0.195-0.705,0.393-1.06,0.587c-1.063,0.579-2.138,1.135-3.224,1.669
			c-2.168,1.066-4.38,2.042-6.627,2.929c-2.245,0.885-4.525,1.681-6.833,2.387c-0.961,0.294-1.928,0.572-2.898,0.835
			c-0.579,0.157-1.164,0.333-1.752,0.457c2.209-0.464-0.466,0.091-0.882,0.181c-4.734,1.028-9.52,1.649-14.347,2.014
			c-2.083,0.158,1.8-0.068,0.412-0.025c-0.504,0.016-1.008,0.042-1.512,0.057c-1.21,0.036-2.421,0.051-3.631,0.044
			c-2.427-0.014-4.836-0.217-7.259-0.301c3.831,0.131-0.417-0.066-1.345-0.176c-1.203-0.143-2.403-0.307-3.6-0.493
			c-0.997-0.155-1.992-0.324-2.985-0.509c-0.874-0.162-3.084-0.757,0.726,0.164c-0.784-0.19-1.578-0.342-2.363-0.527
			c-2.159-0.509-4.302-1.088-6.423-1.738c-0.856-0.262-2.961-1.116,0.706,0.244c-0.566-0.21-1.146-0.388-1.715-0.589
			c-1.329-0.47-2.648-0.969-3.956-1.496c-1.121-0.452-2.226-0.937-3.334-1.416c-2.086-0.902,2.466,1.201,0.425,0.201
			c-0.723-0.354-1.448-0.703-2.165-1.068c-2.33-1.186-4.61-2.469-6.832-3.846c-0.171-0.107-0.341-0.213-0.512-0.32
			c-0.882-0.56-0.68-0.429,0.604,0.393c-0.512-0.532-1.389-0.928-1.999-1.352c-0.991-0.69-1.968-1.4-2.931-2.129
			c-2.252-1.707-4.412-3.526-6.494-5.436c-1.906-1.748-5.345-2.931-7.752-3.567c-2.528-0.668-5.868-1.226-8.502-0.729
			c-1.548,0.292-3.795,0.73-4.272,2.536C584.065,168.11,585.893,169.61,587.002,170.627L587.002,170.627z"/>
	</g>
	<path class="st0" d="M936.343,87.509c-0.411-2.524-2.303-5.241-4.231-6.828c-4.479-3.687-10.254-5.4-15.496-2.486
		c-1.116,0.62-2.233,1.237-3.354,1.848c-0.673,0.367-1.347,0.729-2.021,1.094c-0.101,0.055-0.188,0.102-0.265,0.144
		c-2.395,1.27-4.805,2.515-7.225,3.737c-4.787,2.415-9.621,4.737-14.499,6.963c-9.523,4.346-19.211,8.332-29.035,11.948
		c-2.769,1.019-5.549,2.004-8.338,2.963c0.552-15.66,1.103-31.319,1.655-46.979c0.661-18.773,1.323-37.546,1.984-56.318
		c0.061-1.742-3.213-2.83-4.288-3.081c-2.636-0.616-5.976-0.361-8.56,0.295c-4.139,1.051-10.139,3.149-10.315,8.152
		c-1.173,33.311-2.347,66.622-3.52,99.933c-0.061,1.74-0.123,3.48-0.184,5.22c-9.756,2.725-19.609,5.104-29.539,7.142
		c-0.101,0.021-0.187,0.038-0.268,0.055c-0.852,0.164-1.703,0.331-2.555,0.492c-1.505,0.284-3.012,0.561-4.52,0.829
		c-2.765,0.491-5.535,0.954-8.31,1.388c-6.054,0.948-12.13,1.755-18.22,2.436c-2.276,0.255-4.69,1.113-5.922,3.213
		c-1.159,1.975-0.915,4.762,0.085,6.737c2.507,4.954,8.752,9.151,14.501,8.507c18.175-2.034,36.226-5.226,53.999-9.555
		c-0.868,24.631-1.735,49.262-2.603,73.893c-0.661,18.773-1.323,37.546-1.984,56.318c-0.061,1.742,3.213,2.83,4.288,3.081
		c2.636,0.616,5.976,0.361,8.561-0.295c4.139-1.051,10.139-3.149,10.315-8.152c1.174-33.311,2.347-66.622,3.52-99.933
		c0.367-10.42,0.734-20.839,1.101-31.259c16.659-5.07,33.006-11.164,48.902-18.277c11.651-5.214,23.04-10.994,34.196-17.196
		C936.115,92.47,936.652,89.408,936.343,87.509z"/>
	<g>
		<path class="st0" d="M231.809,247.081c0.128-0.077,0.257-0.152,0.383-0.23c0.049-0.031,0.098-0.064,0.147-0.094
			c-0.068,0.033-0.352,0.196-0.668,0.403c0.02-0.012,0.041-0.022,0.061-0.034C231.761,247.109,231.783,247.096,231.809,247.081z"/>
		<path class="st0" d="M392.701,143.767c-0.757-2.999-1.683-5.538-3.817-7.655c-1.637-1.624-4.296-3.148-6.626-2.984
			c-2.217,0.156-4.537,1.082-5.842,3.303c-1.249,2.127-2.003,5.079-1.387,7.518c3.214,12.728,6.341,25.62,7.306,38.936
			c0.046,0.629-0.057,1.586,0.128,2.181c0.007,0.219,0.014,0.439,0.019,0.658c0.034,1.6,0.031,3.202-0.014,4.805
			c-0.094,3.306-0.371,6.615-0.866,9.894c-0.054,0.36-0.41,2.62-0.199,1.263c0.203-1.304,0.006-0.069-0.049,0.17
			c-0.11,0.479-0.206,0.962-0.316,1.442c-0.361,1.566-0.778,3.119-1.249,4.653c-0.428,1.394-0.9,2.773-1.424,4.13
			c-0.21,0.544-0.429,1.085-0.655,1.622c-0.077,0.182-0.157,0.363-0.236,0.544c-1.409,2.326-2.533,4.831-4.048,7.105
			c-1.381,2.074-2.891,4.032-4.489,5.902c-4.138,4.419-8.796,8.136-13.849,11.103c-3.873,2.034-7.905,3.633-12.057,4.684
			c-0.96,0.243-1.953,0.377-2.909,0.632c-0.029,0.004-0.058,0.009-0.087,0.013c-0.612,0.087-1.225,0.16-1.838,0.223
			c-2.348,0.239-4.703,0.298-7.046,0.186c-1.11-0.053-2.216-0.144-3.318-0.272c-0.053-0.006-0.107-0.015-0.161-0.023
			c-0.639-0.118-1.28-0.223-1.917-0.355c-2.259-0.468-4.487-1.092-6.67-1.857c-1.067-0.374-2.109-0.809-3.16-1.229
			c-0.587-0.28-1.171-0.57-1.75-0.871c-2.157-1.122-4.25-2.387-6.267-3.784c-0.888-0.615-1.991-1.215-2.746-2.019
			c-0.096-0.102,1.821,1.493,0.97,0.757c-0.216-0.187-0.441-0.363-0.66-0.547c-0.584-0.491-1.159-0.994-1.725-1.508
			c-1.771-1.607-3.459-3.326-5.053-5.146c-0.347-0.397-0.686-0.803-1.025-1.208c-0.736-0.995-1.468-1.99-2.161-3.023
			c-1.339-1.994-2.527-4.085-3.677-6.219c-0.256-0.552-0.506-1.108-0.747-1.668c-0.579-1.341-1.117-2.705-1.615-4.089
			c-0.426-1.185-0.822-2.383-1.189-3.595c-0.17-0.563-0.322-1.135-0.49-1.699c-0.011-0.047-0.024-0.093-0.035-0.14
			c-0.131-0.555-0.252-1.114-0.371-1.673c5.44-15.335,7.327-32.163,5.324-48.161c0.706-2.282,0.172-5.546-0.549-7.511
			c-0.346-0.942-0.84-1.915-1.438-2.831c-0.595-1.369-1.585-2.372-2.78-3.076c-0.318-0.242-0.642-0.46-0.973-0.641
			c-2-1.096-4.502-1.908-6.76-0.953c-0.371,0.157-0.713,0.334-1.034,0.528c-2.062,0.363-4.194,1.024-5.866,2.421
			c-1.246,1.041-3.271,2.98-2.828,4.948c0.558,2.483,1.011,4.991,1.369,7.516c-4.024,13.546-5.151,28.231-3.171,42.055
			c-0.6,1.977-1.254,3.938-1.977,5.872c-1.145,3.065-2.441,6.067-3.882,8.984c-0.709,1.436-1.454,2.852-2.233,4.244
			c-0.282,0.504-0.948,1.575-0.258,0.462c-0.432,0.697-0.849,1.404-1.286,2.097c-3.062,4.846-6.549,9.368-10.377,13.497
			c-0.958,1.033-1.943,2.03-2.935,3.023c-0.057,0.057-0.103,0.104-0.143,0.144c-0.07,0.064-0.152,0.14-0.25,0.231
			c-0.585,0.542-1.177,1.076-1.775,1.602c-2.092,1.838-4.258,3.569-6.49,5.186c-1.036,0.75-2.086,1.476-3.149,2.176
			c-0.523,0.345-1.051,0.681-1.581,1.013c0.064-0.031-0.065,0.055-0.53,0.325c-0.124,0.074-0.246,0.149-0.364,0.231
			c0.076-0.053,0.152-0.104,0.227-0.153c-2.339,1.346-4.731,2.572-7.166,3.667c-1.14,0.513-2.29,0.997-3.448,1.453
			c-0.085,0.033-0.171,0.065-0.257,0.097c-0.63,0.212-1.257,0.434-1.89,0.636c-1.212,0.388-2.43,0.744-3.655,1.066
			c-0.759,0.199-1.519,0.385-2.282,0.558c-0.327,0.074-0.655,0.147-0.983,0.216c-0.024,0.005-0.076,0.016-0.145,0.029
			c-0.35,0.051-1.433,0.232-1.741,0.274c-0.663,0.089-1.326,0.168-1.99,0.235c-0.774,0.078-1.549,0.139-2.324,0.185
			c-0.332,0.02-0.664,0.038-0.995,0.051c-0.008,0-0.02,0.001-0.034,0.001c-0.103-0.017-1.485-0.023-1.841-0.04
			c-0.658-0.032-1.315-0.077-1.97-0.135c-0.684-0.061-1.365-0.14-2.045-0.232c0.004-0.009-0.767-0.133-0.966-0.176
			c-1.492-0.325-2.965-0.731-4.414-1.223c-0.028-0.01-0.197-0.063-0.383-0.124c-0.764-0.35-1.536-0.672-2.29-1.049
			c-1.113-0.557-2.201-1.172-3.26-1.842c-0.141-0.089-0.662-0.447-0.91-0.612c-0.343-0.26-0.767-0.582-0.897-0.685
			c-2.228-1.775-4.286-3.8-6.16-6.019c-0.405-0.479-0.796-0.97-1.188-1.463c-0.182-0.256-0.367-0.509-0.547-0.768
			c-0.847-1.216-1.646-2.474-2.399-3.766c-2.937-5.037-5.124-10.579-6.712-16.35c-3.035-12.465-2.912-25.428-0.913-38.319
			c2.82-16.238,8.233-31.806,13.676-47.248c1.723-4.889-4.276-7.242-7.552-7.418c-2.625-0.14-5.482,0.139-7.928,1.424
			c-1.787,0.939-3.814,2.219-4.58,4.391c-8.252,23.412-17.012,48.366-15.666,73.6c1.025,19.224,8.382,39.262,22.627,50.454
			c19.095,15.004,45.155,12.884,66.7,3.3c16.64-7.402,31.275-20.112,41.803-36.283c6.557,13.344,16.313,24.439,28.658,31.731
			c15.897,9.39,35.203,11.785,52.712,4.387c16.642-7.031,30.714-21.313,37.433-39.806
			C404.975,195.967,398.916,168.38,392.701,143.767z M178.272,241.822C177.908,241.362,178.076,241.571,178.272,241.822
			L178.272,241.822z M193.009,253.654c-0.215-0.072-0.414-0.143-0.412-0.159C192.598,253.482,192.798,253.564,193.009,253.654z
			 M291.641,216.444c-0.012-0.022-0.024-0.044-0.036-0.067C291.372,215.943,291.463,216.109,291.641,216.444z M292.251,217.686
			c-0.151-0.117-0.298-0.611-0.389-0.82C292.082,217.289,292.302,217.726,292.251,217.686z M377.428,214.351
			c-0.061,0.14-0.121,0.28-0.182,0.42C376.817,215.763,377.178,214.866,377.428,214.351z"/>
	</g>
</g>
</svg>
