<?xml version="1.0" encoding="utf-8"?>
<!-- Generator: Adobe Illustrator 20.1.0, SVG Export Plug-In . SVG Version: 6.00 Build 0)  -->
<svg version="1.1" xmlns="http://www.w3.org/2000/svg" xmlns:xlink="http://www.w3.org/1999/xlink" x="0px" y="0px"
	 viewBox="0 0 500 500" style="enable-background:new 0 0 500 500;" xml:space="preserve">
<style type="text/css">
	.st0{fill:none;}
	.st1{fill:#F44336;}
	.st2{fill:#FFCDD2;}
	.st3{fill:#FFFFFF;stroke:#00BCD4;stroke-width:3.5009;stroke-miterlimit:10;}
	.st4{fill:url(#New_Pattern_Swatch_1);}
	.st5{fill:url(#SVGID_1_);}
	.st6{fill:url(#SVGID_2_);}
	.st7{fill:url(#SVGID_3_);}
	.st8{fill:url(#SVGID_4_);}
	.st9{fill:url(#SVGID_5_);}
	.st10{fill:url(#SVGID_6_);}
	.st11{fill:#FFFFFF;stroke:#00BCD4;stroke-width:3;stroke-miterlimit:10;}
	.st12{fill:none;stroke:#00BCD4;stroke-width:3;stroke-miterlimit:10;}
	.st13{fill:#FFFFFF;stroke:#00BCD4;stroke-width:4;stroke-miterlimit:10;}
	.st14{fill:#00BCD4;}
	.st15{fill:url(#SVGID_7_);}
	.st16{fill:url(#SVGID_8_);}
	.st17{fill:url(#SVGID_9_);}
	.st18{fill:url(#SVGID_10_);}
	.st19{fill:url(#SVGID_11_);}
	.st20{fill:url(#SVGID_12_);}
	.st21{fill:url(#SVGID_13_);}
	.st22{fill:url(#SVGID_14_);}
	.st23{fill:url(#SVGID_15_);}
	.st24{fill:url(#SVGID_16_);}
	.st25{fill:url(#SVGID_17_);}
	.st26{fill:url(#SVGID_18_);}
	.st27{fill:url(#SVGID_19_);}
	.st28{fill:none;stroke:#00BCD4;stroke-width:2;stroke-miterlimit:10;}
	.st29{fill:#FFFFFF;stroke:#00BCD4;stroke-width:2.8287;stroke-miterlimit:10;}
	.st30{fill:#FFFFFF;stroke:#00BCD4;stroke-width:2.4239;stroke-miterlimit:10;}
	.st31{fill:none;stroke:#00BCD4;stroke-width:2.4239;stroke-miterlimit:10;}
	.st32{fill:url(#SVGID_20_);}
	.st33{fill:url(#SVGID_21_);}
	.st34{fill:url(#SVGID_22_);}
	.st35{fill:url(#SVGID_23_);}
	.st36{fill:url(#SVGID_24_);}
	.st37{fill:url(#SVGID_25_);}
	.st38{fill:url(#SVGID_26_);}
	.st39{fill:url(#SVGID_27_);}
</style>
<pattern  x="-1045" width="242" height="43" patternUnits="userSpaceOnUse" id="New_Pattern_Swatch_1" viewBox="0 -43 242 43" style="overflow:visible;">
	<g>
		<rect y="-43" class="st0" width="242" height="43"/>
		<rect y="-43" class="st1" width="242" height="14.333"/>
		<rect y="-28.667" class="st2" width="242" height="14.333"/>
		<rect y="-14.333" class="st1" width="242" height="14.333"/>
	</g>
</pattern>
<g id="Layer_2">
</g>
<g id="Layer_1">
	<g>
		<g>
			<g>
				<rect x="109.34" y="356.174" class="st14" width="40" height="40"/>
				<rect x="350.007" y="356.174" class="st14" width="40" height="40"/>
			</g>
			<rect x="100.007" y="356.174" class="st11" width="299.333" height="8.333"/>
			<g>
				<rect x="77.326" y="184.826" class="st29" width="170.348" height="170.348"/>
				<rect x="89.513" y="197.013" class="st30" width="145.974" height="145.974"/>
				<g>
					<line class="st31" x1="128.026" y1="197.013" x2="128.026" y2="342.987"/>
					<line class="st31" x1="196.974" y1="197.013" x2="196.974" y2="342.987"/>
				</g>
				<polygon class="st11" points="83.376,330.827 222.694,190.306 241.5,190.011 241.5,208.904 101.775,349.5 83.669,349.5 				"/>
				<polygon class="st14" points="92.727,337.331 95.169,339.773 95.169,343.226 92.727,345.668 89.274,345.668 86.832,343.226 
					86.832,339.773 89.274,337.331 				"/>
				<polygon class="st14" points="235.8,194.259 238.241,196.7 238.241,200.154 235.8,202.596 232.346,202.596 229.904,200.154 
					229.904,196.7 232.346,194.259 				"/>
				<polygon class="st14" points="85.584,187.795 88.026,190.237 88.026,193.69 85.584,196.132 82.131,196.132 79.689,193.69 
					79.689,190.237 82.131,187.795 				"/>
				<polygon class="st14" points="242.6,344.205 245.042,346.647 245.042,350.1 242.6,352.542 239.147,352.542 236.705,350.1 
					236.705,346.647 239.147,344.205 				"/>
			</g>
			<g>
				<rect x="252.326" y="184.826" class="st29" width="170.348" height="170.348"/>
				<rect x="264.513" y="197.013" class="st30" width="145.974" height="145.974"/>
				<g>
					<line class="st31" x1="303.026" y1="197.013" x2="303.026" y2="342.987"/>
					<line class="st31" x1="371.974" y1="197.013" x2="371.974" y2="342.987"/>
				</g>
				<polygon class="st11" points="258.375,330.827 397.694,190.306 416.5,190.011 416.5,208.904 276.775,349.5 258.669,349.5 				
					"/>
				<polygon class="st14" points="267.727,337.331 270.169,339.773 270.169,343.226 267.727,345.668 264.274,345.668 
					261.832,343.226 261.832,339.773 264.274,337.331 				"/>
				<polygon class="st14" points="410.8,194.259 413.241,196.7 413.241,200.154 410.8,202.596 407.346,202.596 404.904,200.154 
					404.904,196.7 407.346,194.259 				"/>
				<polygon class="st14" points="260.584,187.795 263.026,190.237 263.026,193.69 260.584,196.132 257.131,196.132 254.689,193.69 
					254.689,190.237 257.131,187.795 				"/>
				<polygon class="st14" points="417.6,344.205 420.042,346.647 420.042,350.1 417.6,352.542 414.147,352.542 411.705,350.1 
					411.705,346.647 414.147,344.205 				"/>
			</g>
			<g>
				<rect x="216.326" y="13.826" class="st29" width="170.348" height="170.348"/>
				<rect x="228.513" y="26.013" class="st30" width="145.974" height="145.974"/>
				<g>
					<line class="st31" x1="267.026" y1="26.013" x2="267.026" y2="171.987"/>
					<line class="st31" x1="335.974" y1="26.013" x2="335.974" y2="171.987"/>
				</g>
				<polygon class="st11" points="222.376,159.827 361.694,19.306 380.5,19.011 380.5,37.904 240.775,178.5 222.669,178.5 				"/>
				<polygon class="st14" points="231.727,166.331 234.169,168.773 234.169,172.226 231.727,174.668 228.274,174.668 
					225.832,172.226 225.832,168.773 228.274,166.331 				"/>
				<polygon class="st14" points="374.8,23.259 377.241,25.7 377.241,29.154 374.8,31.596 371.346,31.596 368.904,29.154 
					368.904,25.7 371.346,23.259 				"/>
				<polygon class="st14" points="224.584,16.795 227.026,19.237 227.026,22.69 224.584,25.132 221.131,25.132 218.689,22.69 
					218.689,19.237 221.131,16.795 				"/>
				<polygon class="st14" points="381.6,173.205 384.042,175.647 384.042,179.1 381.6,181.542 378.147,181.542 375.705,179.1 
					375.705,175.647 378.147,173.205 				"/>
			</g>
		</g>
		
			<pattern  id="SVGID_1_" xlink:href="#New_Pattern_Swatch_1" patternTransform="matrix(0.026 0.6629 -0.6629 0.026 -11122.5342 -3036.9141)">
		</pattern>
		<path class="st5" d="M343.123,352.794c-3.949-0.713-5.055-16.439-0.624-15.91c0,0,36.944,2.425,37.955,28.224
			c1.011,25.799-19.427,29.477-19.427,29.477c-3.081,1.864-112.889,7.966-113.028,4.43c-3.536,0.139-4.003-11.794-0.468-11.933
			c18.394,6.478,69.115,5.613,98.22-2.782C374.171,376.102,382.112,357.018,343.123,352.794z"/>
		<g>
			<circle class="st2" cx="231.082" cy="378.758" r="23.082"/>
			<g>
				<path class="st1" d="M254,384.91c0-4.125,0-8.249,0-12.374c-3,2.057-12.924,4.276-22.953,6.333
					c10.863-7.677,20.351-15.87,6.221-22.87c-4.125,0-8.249,0-12.374,0c18.25,7,12.94,15.192,6.201,22.87
					c-0.001,0.003-0.041-0.075-0.042-0.073c-5.309-2.06-11.053-4.2-23.053-6.26c0,4.125,0,8.249,0,12.374
					c3-2.058,13.001-3.998,23.03-6.056C220.164,386.531,210.774,394,224.894,402c4.124,0,8.249,0,12.374,0
					c-18.273-8-12.953-15.478-6.219-23.159c0,0-0.049-0.059-0.048-0.059C236.318,380.845,242,382.848,254,384.91z"/>
			</g>
		</g>
		<g>
			
				<pattern  id="SVGID_2_" xlink:href="#New_Pattern_Swatch_1" patternTransform="matrix(0.1495 0.004 -0.004 0.1495 -5573.2705 -6215.104)">
			</pattern>
			<polygon class="st6" points="160.541,382.983 160.629,379.694 156.556,381.23 			"/>
			
				<pattern  id="SVGID_3_" xlink:href="#New_Pattern_Swatch_1" patternTransform="matrix(0.1495 0.004 -0.004 0.1495 -5573.2705 -6215.104)">
			</pattern>
			<polygon class="st7" points="160.453,386.271 160.541,382.983 156.468,384.519 			"/>
			
				<pattern  id="SVGID_4_" xlink:href="#New_Pattern_Swatch_1" patternTransform="matrix(0.1495 0.004 -0.004 0.1495 -5573.2705 -6215.104)">
			</pattern>
			<polygon class="st8" points="160.208,389.462 156.331,390.91 160.281,392.661 160.364,389.56 160.369,389.373 160.453,386.271 
				156.414,387.808 			"/>
			
				<pattern  id="SVGID_5_" xlink:href="#New_Pattern_Swatch_1" patternTransform="matrix(0.1495 0.004 -0.004 0.1495 -5573.2705 -6215.104)">
			</pattern>
			<polygon class="st9" points="160.192,395.95 160.281,392.661 156.208,394.197 			"/>
			
				<pattern  id="SVGID_6_" xlink:href="#New_Pattern_Swatch_1" patternTransform="matrix(0.1495 0.004 -0.004 0.1495 -5573.2705 -6215.104)">
			</pattern>
			<polygon class="st10" points="160.104,399.239 160.192,395.95 156.119,397.486 			"/>
			
				<pattern  id="SVGID_7_" xlink:href="#New_Pattern_Swatch_1" patternTransform="matrix(0.1495 0.004 -0.004 0.1495 -5573.2705 -6215.104)">
			</pattern>
			<polygon class="st15" points="222.578,386.296 218.687,384.584 218.689,384.507 222.279,383.03 218,381.341 218,381.35 
				160.241,379.764 159.908,399.335 218.152,400.892 218.204,400.766 222.206,399.264 218.326,397.552 218.335,397.475 
				222.315,395.975 218.425,394.263 218.428,394.186 222.395,392.686 218.627,391.032 222.479,389.584 218.599,387.873 
				218.601,387.796 			"/>
		</g>
		
			<pattern  id="SVGID_8_" xlink:href="#New_Pattern_Swatch_1" patternTransform="matrix(-0.026 0.6629 0.6629 0.026 -1848.6462 -3239.2007)">
		</pattern>
		<path class="st16" d="M169.47,360.794c3.949-0.713,5.055-16.439,0.624-15.91c0,0-36.944,2.425-37.955,28.224
			c-1.011,25.799,19.427,29.477,19.427,29.477c3.081,1.864,112.889,7.966,113.028,4.43c3.536,0.139,4.003-11.794,0.468-11.933
			c-18.394,6.478-69.115,5.613-98.22-2.782C138.422,384.102,130.482,365.018,169.47,360.794z"/>
	</g>
</g>
</svg>
