<?xml version="1.0" encoding="utf-8"?>
<!-- Generator: Adobe Illustrator 20.1.0, SVG Export Plug-In . SVG Version: 6.00 Build 0)  -->
<svg version="1.1" id="Layer_1" xmlns="http://www.w3.org/2000/svg" xmlns:xlink="http://www.w3.org/1999/xlink" x="0px" y="0px"
	 viewBox="0 0 1643.333 292.974" style="enable-background:new 0 0 1643.333 292.974;" xml:space="preserve">
<style type="text/css">
	.st0{fill:#231F20;}
</style>
<g>
	<path class="st0" d="M0.995,236.973c0.156-0.154,0.585-0.042,1.26,0.309c0.343,0.17,0.724,0.424,1.205,0.692
		c0.478,0.27,1.016,0.596,1.615,0.969c0.613,0.347,1.299,0.735,2.055,1.164c0.772,0.396,1.585,0.863,2.514,1.281
		c1.828,0.88,3.978,1.787,6.473,2.545c2.491,0.762,5.311,1.415,8.44,1.777c3.126,0.359,6.551,0.455,10.191,0.157
		c3.636-0.329,7.49-1.026,11.395-2.291c3.906-1.245,7.855-3.06,11.61-5.489c0.461-0.315,0.924-0.632,1.39-0.95
		c0.459-0.318,0.86-0.645,1.298-0.965c0.404-0.284,0.933-0.743,1.415-1.134l0.37-0.304l0.185-0.152l0.093-0.076
		c-0.024,0.018,0.118-0.095-0.041,0.032l0.04-0.038l0.639-0.606c0.428-0.403,0.858-0.808,1.29-1.215
		c0.423-0.417,0.893-0.786,1.278-1.252c0.804-0.891,1.617-1.792,2.437-2.702c3.146-3.764,5.863-8.153,8.033-13.006
		c2.168-4.854,3.775-10.181,4.711-15.799c0.216-1.407,0.376-2.835,0.576-4.264c0.104-1.442,0.216-2.893,0.304-4.353
		c0-1.465,0.064-2.938,0.026-4.42c-0.035-0.74-0.07-1.483-0.104-2.227c-0.033-0.745-0.054-1.501-0.151-2.198
		c-1.086-11.972-5.388-24.277-12.391-35.627c-3.476-5.692-7.571-11.19-12.223-16.369c-0.582-0.647-1.165-1.295-1.749-1.944
		c-0.606-0.631-1.212-1.263-1.82-1.897c-1.21-1.297-2.454-2.457-3.686-3.677l-0.464-0.454l-0.513-0.471l-1.027-0.943l-1.029-0.944
		l-0.515-0.473l-0.183-0.166l-0.254-0.223c-1.347-1.191-2.727-2.378-4.145-3.578c-2.825-2.397-5.738-4.817-8.612-7.377
		c-2.875-2.554-5.721-5.26-8.379-8.237l-0.992-1.119l-0.964-1.157l-0.48-0.578l-0.488-0.625l-0.971-1.267l-0.237-0.313l-0.196-0.278
		l-0.391-0.556l-0.391-0.555l-0.195-0.277l-0.098-0.139c0.003,0.005-0.181-0.263-0.128-0.19l-0.051-0.081
		c-0.543-0.87-1.084-1.738-1.624-2.605c-2.05-3.528-3.678-7.233-4.907-11.014c-4.829-15.158-3.116-31.496,4.069-44.327
		c3.578-6.386,8.313-11.793,13.636-16.062c0.332-0.268,0.652-0.55,0.994-0.802l1.029-0.749c0.691-0.489,1.355-1.01,2.063-1.462
		c1.418-0.901,2.809-1.816,4.278-2.577c1.429-0.83,2.931-1.494,4.4-2.185c0.736-0.343,1.504-0.611,2.249-0.915
		c0.751-0.293,1.491-0.602,2.26-0.829c0.762-0.243,1.52-0.486,2.275-0.727c0.758-0.232,1.533-0.397,2.294-0.595
		c1.481-0.412,3.154-0.663,4.737-0.944c0.42-0.081,0.752-0.108,1.097-0.145l1.034-0.109l1.029-0.108l0.686-0.073l0.571-0.031
		c0.76-0.042,1.515-0.085,2.27-0.084c0.377-0.004,0.753-0.007,1.128-0.011c0.375,0.01,0.75,0.02,1.123,0.03
		c5.966,0.179,11.732,1.478,16.81,3.916c0.635,0.302,1.261,0.612,1.865,0.965c0.304,0.171,0.607,0.341,0.909,0.51
		c0.294,0.186,0.587,0.372,0.879,0.557c0.291,0.188,0.581,0.375,0.87,0.561c0.298,0.216,0.595,0.432,0.891,0.647
		c0.289,0.213,0.602,0.438,0.863,0.643l0.675,0.567c2.115,1.761,3.911,3.788,5.347,5.914c2.879,4.261,4.467,8.969,4.769,13.516
		c0.147,2.269,0.028,4.496-0.447,6.584c-0.04,0.254-0.117,0.534-0.195,0.81c-0.078,0.274-0.155,0.547-0.232,0.818
		c-0.08,0.268-0.159,0.535-0.238,0.801c-0.082,0.205-0.163,0.409-0.244,0.612c-0.081,0.203-0.162,0.405-0.242,0.606l-0.12,0.301
		l-0.03,0.075c0.007-0.019-0.109,0.292-0.071,0.181l-0.022,0.043l-0.088,0.173c-0.237,0.456-0.471,0.907-0.703,1.353
		c-1.027,1.711-2.182,3.221-3.499,4.401c-0.616,0.636-1.323,1.127-1.97,1.645c-0.323,0.26-0.685,0.457-1.019,0.681
		c-0.343,0.211-0.667,0.438-1.011,0.622c-2.733,1.511-5.436,2.226-7.789,2.426c-0.594,0.024-1.153,0.099-1.701,0.063
		c-0.542-0.032-1.061-0.063-1.557-0.092c-0.986-0.179-1.867-0.297-2.621-0.592c-0.379-0.129-0.73-0.244-1.056-0.373
		c-0.329-0.161-0.629-0.315-0.9-0.461c-0.271-0.146-0.514-0.284-0.729-0.414c-0.188-0.146-0.35-0.286-0.495-0.414
		c-0.576-0.515-0.824-0.876-0.729-1.073c0.095-0.197,0.532-0.227,1.294-0.096c0.19,0.032,0.402,0.078,0.631,0.126
		c0.223,0.015,0.461,0.036,0.712,0.063c0.251,0.026,0.516,0.059,0.793,0.098c0.296,0.009,0.612,0.019,0.947,0.03
		c0.657,0.067,1.408-0.038,2.202-0.065c0.398-0.064,0.814-0.131,1.249-0.201c0.431-0.055,0.872-0.217,1.329-0.319
		c1.815-0.511,3.826-1.418,5.748-2.861c0.243-0.175,0.463-0.388,0.7-0.582c0.228-0.205,0.485-0.38,0.698-0.611
		c0.427-0.459,0.913-0.875,1.296-1.401c0.862-0.971,1.524-2.145,2.096-3.365c0.121-0.313,0.244-0.63,0.368-0.95l0.048-0.119
		l0.012-0.03c0.051-0.135-0.055,0.151-0.04,0.107l0.022-0.078l0.089-0.311c0.059-0.208,0.119-0.417,0.179-0.627
		c0.06-0.21,0.121-0.421,0.181-0.634l0.073-0.492l0.08-0.488c0.029-0.161,0.062-0.32,0.07-0.518c0.193-1.49,0.12-3.077-0.126-4.691
		c-0.492-3.23-1.946-6.618-4.258-9.547c-1.157-1.468-2.514-2.794-4.076-3.932l-0.71-0.522c-0.214-0.143-0.394-0.243-0.592-0.369
		l-0.578-0.366l-0.666-0.369l-0.671-0.372l-0.701-0.335c-0.46-0.236-0.945-0.438-1.435-0.636c-3.906-1.602-8.46-2.405-13.235-2.311
		l-0.897,0.018l-0.902,0.053c-0.603,0.026-1.206,0.091-1.813,0.152l-0.455,0.044c0.324-0.035,0.053-0.004,0.109-0.01l-0.064,0.01
		l-0.127,0.019l-0.255,0.039l-1.024,0.155l-1.029,0.155c-0.344,0.052-0.705,0.099-0.967,0.174c-1.151,0.286-2.268,0.473-3.514,0.881
		c-0.608,0.188-1.228,0.339-1.833,0.554c-0.603,0.221-1.209,0.442-1.817,0.665c-0.615,0.202-1.204,0.483-1.804,0.744
		c-0.594,0.273-1.209,0.504-1.794,0.808c-1.169,0.613-2.369,1.183-3.501,1.905c-1.171,0.652-2.268,1.443-3.392,2.204
		c-0.562,0.382-1.08,0.829-1.626,1.24l-0.813,0.628c-0.27,0.211-0.518,0.451-0.779,0.675c-0.516,0.455-1.034,0.911-1.553,1.369
		c-0.489,0.489-0.98,0.979-1.473,1.471c-0.509,0.476-0.955,1.014-1.42,1.536c-0.453,0.532-0.955,1.027-1.366,1.598
		c-0.431,0.554-0.863,1.109-1.297,1.667c-0.413,0.571-0.794,1.167-1.197,1.749c-0.195,0.296-0.41,0.579-0.59,0.884l-0.536,0.92
		l-0.54,0.92l-0.272,0.46l-0.237,0.478c-0.318,0.637-0.636,1.276-0.956,1.916l-0.06,0.12c-0.085,0.185,0.082-0.186,0.054-0.12
		l-0.03,0.071l-0.118,0.284l-0.237,0.568l-0.475,1.139l-0.238,0.57l-0.119,0.286c-0.037,0.092-0.054,0.164-0.083,0.246l-0.313,0.96
		c-0.204,0.652-0.45,1.24-0.619,1.98c-0.188,0.707-0.376,1.416-0.564,2.127c-0.142,0.724-0.284,1.449-0.427,2.177l-0.109,0.545
		l-0.073,0.553l-0.145,1.109l-0.149,1.111c-0.036,0.373-0.052,0.748-0.08,1.123c-0.036,0.751-0.135,1.499-0.128,2.256
		c-0.005,0.756-0.01,1.513-0.015,2.273c0.08,1.517,0.123,3.045,0.344,4.565c0.383,3.038,0.992,6.09,2.015,9.024
		c0.998,2.94,2.291,5.792,3.882,8.481c0.418,0.658,0.836,1.318,1.256,1.979l0.039,0.062c0.083,0.121-0.07-0.096-0.036-0.048
		l0.099,0.138l0.198,0.276l0.395,0.552l0.396,0.553l0.198,0.277l0.178,0.227c0.896,1.146,1.941,2.45,3.073,3.671
		c2.229,2.469,4.735,4.846,7.412,7.208c2.672,2.366,5.505,4.716,8.407,7.177c1.448,1.226,2.906,2.482,4.354,3.765l0.607,0.543
		l0.514,0.474l1.027,0.947l1.025,0.945l0.512,0.472l0.531,0.519c1.405,1.387,2.854,2.762,4.153,4.165
		c0.664,0.699,1.326,1.397,1.988,2.094c0.64,0.718,1.278,1.436,1.916,2.151c5.088,5.736,9.594,11.884,13.423,18.326
		c7.71,12.836,12.475,27.092,13.396,41.096c0.094,0.92,0.1,1.787,0.118,2.658c0.017,0.871,0.034,1.74,0.052,2.605
		c-0.001,1.73-0.114,3.448-0.173,5.153c-0.146,1.701-0.325,3.388-0.503,5.06c-0.274,1.662-0.517,3.316-0.824,4.946
		c-1.299,6.511-3.396,12.673-6.174,18.285c-2.779,5.61-6.23,10.676-10.194,14.976c-1.014,1.053-2.051,2.066-3.063,3.077
		c-0.489,0.522-1.068,0.949-1.598,1.418c-0.541,0.457-1.079,0.913-1.614,1.365l-0.801,0.674l-0.05,0.042l-0.136,0.106l-0.097,0.071
		l-0.193,0.142l-0.385,0.284c-0.529,0.383-0.975,0.736-1.617,1.156c-0.598,0.397-1.201,0.82-1.786,1.18
		c-0.584,0.351-1.164,0.7-1.741,1.047c-4.68,2.655-9.465,4.473-14.101,5.598c-4.636,1.144-9.122,1.594-13.294,1.607
		c-4.177-0.019-8.046-0.505-11.518-1.29c-3.475-0.788-6.545-1.905-9.185-3.133c-2.644-1.223-4.844-2.599-6.634-3.92
		c-0.909-0.639-1.683-1.321-2.395-1.923c-0.7-0.621-1.292-1.231-1.825-1.76c-0.507-0.563-0.936-1.072-1.295-1.517
		c-0.361-0.443-0.612-0.865-0.816-1.198C0.959,237.543,0.839,237.127,0.995,236.973z"/>
</g>
<g>
	<g>
		<path class="st0" d="M845.293,125.836c-7.851-7.851-18.993-12.408-31.908-12.408c-25.83,0-44.569,18.739-44.569,44.569
			s18.739,44.569,44.569,44.569c12.915,0,24.058-4.559,31.908-12.662l35.452,34.946c-17.22,17.221-41.023,28.109-67.36,28.109
			c-52.419,0-94.963-42.543-94.963-94.963s42.544-94.963,94.963-94.963c26.084,0,49.635,10.382,66.854,27.603L845.293,125.836z"/>
		<path class="st0" d="M1028.892,252.96l-29.376-50.394h-30.895v50.394h-49.887V63.034h80.021c38.492,0,69.894,31.4,69.894,69.893
			c0,20.259-8.863,38.491-22.538,51.153l40.265,68.88H1028.892z M968.621,159.516h30.895c15.194,0,27.35-11.902,27.35-27.097
			s-12.155-27.349-27.35-27.349h-30.895V159.516z"/>
		<path class="st0" d="M1103.342,252.96l88.633-189.926h22.537l89.393,189.926h-49.888l-11.648-24.817h-77.743l-11.396,24.817
			H1103.342z M1184.124,186.106h38.745l-19.246-41.784L1184.124,186.106z"/>
		<path class="st0" d="M1312.521,62.78h149.661v49.635h-50.394V252.96h-49.887V112.415h-49.381V62.78z"/>
		<path class="st0" d="M1496.627,63.034h118.007v41.277h-68.12v30.895h60.271v42.037h-60.271v34.946h68.12v40.771h-118.007V63.034z"
			/>
	</g>
	<g>
		<path class="st0" d="M328.395,138.298c0.148,0.211-0.059,0.695-0.577,1.417c-0.256,0.365-0.604,0.773-1.001,1.265
			c-0.371,0.523-0.809,1.108-1.311,1.749c-0.264,0.307-0.486,0.689-0.741,1.065c-0.253,0.375-0.52,0.77-0.799,1.184
			c-0.291,0.4-0.517,0.884-0.799,1.346c-0.262,0.478-0.577,0.94-0.83,1.473c-1.083,2.085-2.12,4.587-3.015,7.499
			c-1.788,5.823-2.784,13.408-2.719,22.259c0.022,4.495,0.258,9.377,0.346,14.689c0.088,5.303,0.049,11.057-0.764,17.247
			c-0.414,3.093-1.079,6.293-2.055,9.536c-0.267,0.813-0.505,1.612-0.807,2.45c-0.342,0.856-0.686,1.716-1.031,2.581l-0.133,0.324
			l-0.125,0.269l-0.25,0.528c-0.167,0.352-0.334,0.705-0.501,1.059l-0.252,0.532l-0.063,0.133l-0.031,0.067l-0.133,0.25l-0.17,0.298
			c-0.228,0.397-0.457,0.794-0.687,1.193c-0.463,0.796-0.912,1.609-1.465,2.353c-0.536,0.755-1.051,1.538-1.625,2.276
			c-0.597,0.719-1.197,1.441-1.8,2.167c-0.614,0.716-1.3,1.365-1.957,2.053c-2.702,2.667-5.772,5.044-9.148,7.046
			c-6.785,3.907-14.809,6.386-23.39,6.375c-1.135-0.029-2.311-0.103-3.472-0.175l-0.437-0.029c-0.147-0.01-0.236-0.029-0.357-0.043
			l-0.682-0.091l-1.367-0.182l-0.342-0.046l-0.171-0.023l-0.086-0.011c-0.155-0.026,0.226,0.041-0.369-0.06l-0.804-0.177
			c-0.536-0.121-1.074-0.241-1.612-0.363c-1.088-0.213-2.127-0.578-3.184-0.908c-4.206-1.376-8.22-3.407-11.892-5.987
			c-7.33-5.16-13.388-12.508-16.868-21.407l-0.599-1.691l-0.296-0.849c-0.099-0.282-0.199-0.56-0.279-0.889l-0.496-1.905
			l-0.238-0.957l-0.117-0.48c-0.043-0.169-0.049-0.262-0.076-0.396l-0.261-1.5l-0.131-0.751l-0.065-0.376l-0.059-0.406l-0.012-0.111
			l-0.024-0.222l-0.186-1.782l-0.116-1.75c-0.236-4.625,0.026-8.944,0.069-12.866c0.023-1.965-0.005-3.84-0.143-5.605l-0.124-1.302
			l-0.175-1.253l-0.189-1.026c-0.016-0.089-0.023-0.157-0.046-0.263l-0.098-0.385l-0.196-0.771l-0.098-0.386l-0.024-0.096
			c0.019,0.071-0.077-0.295,0.036,0.135l-0.035-0.101c-0.048-0.135-0.082-0.271-0.134-0.409l-0.16-0.417l-0.19-0.422
			c-0.268-0.565-0.599-1.136-0.981-1.692c-0.758-1.118-1.761-2.144-2.82-2.967c-1.061-0.824-2.215-1.393-3.153-1.644
			c-0.469-0.127-0.875-0.174-1.193-0.169c-0.32,0.005-0.548,0.053-0.752,0.127c-0.049,0.025-0.107,0.025-0.153,0.064
			c-0.031,0.022-0.157,0.063-0.075,0.035c0.018-0.009,0.034-0.023,0.047-0.041c0.006-0.009,0.012-0.019,0.017-0.029l-0.165,0.119
			l-0.333,0.24l-0.167,0.12c-0.258,0.194,0.252-0.193,0.198-0.148l-0.021,0.023c-0.107,0.126-0.259,0.202-0.351,0.347
			c-0.125,0.104-0.214,0.273-0.332,0.417c-0.418,0.651-0.874,1.739-1.117,3.286c-0.264,1.517-0.362,3.341-0.359,5.327l0.011,1.501
			l0.03,1.614c0.011,1.152,0.042,2.296,0.034,3.45c-0.008,4.606-0.235,9.243-0.808,13.885c-0.574,4.639-1.496,9.287-2.929,13.848
			c-0.389,1.136-0.767,2.271-1.185,3.395c-0.465,1.116-0.878,2.241-1.396,3.337l-0.781,1.64l-0.393,0.817l-0.44,0.8
			c-0.599,1.07-1.13,2.104-1.887,3.229l-1.072,1.645c-0.191,0.301-0.333,0.475-0.491,0.69l-0.466,0.625l-0.93,1.247l-0.22,0.286
			l-0.077,0.092l-0.154,0.184l-0.308,0.368l-0.619,0.732c-1.688,1.909-3.534,3.617-5.49,5.135c-3.916,3.031-8.262,5.315-12.86,6.821
			c-4.596,1.497-9.479,2.22-14.422,1.877c-4.923-0.331-9.934-1.824-14.207-4.549c-0.585-0.386-1.171-0.791-1.743-1.199l-1.128-0.89
			c0.018,0.016-0.389-0.313-0.258-0.212l-0.085-0.078l-0.17-0.156l-0.338-0.313l-0.672-0.628c-0.438-0.427-0.906-0.826-1.309-1.282
			l-1.19-1.383c-0.391-0.464-0.796-0.917-1.121-1.421l-1.016-1.479c-0.164-0.249-0.342-0.491-0.491-0.745l-0.429-0.77
			c-2.336-4.098-3.649-8.432-4.343-12.6c-0.691-4.182-0.787-8.241-0.555-12.137c0.037-0.98,0.144-1.939,0.239-2.896
			c0.082-0.961,0.218-1.902,0.354-2.84c0.07-0.471,0.128-0.932,0.208-1.408c0.087-0.48,0.174-0.958,0.261-1.436
			c0.088-0.475,0.176-0.95,0.264-1.423l0.279-1.251l0.278-1.245c0.115-0.465,0.23-0.929,0.344-1.392
			c0.214-0.858,0.43-1.707,0.658-2.535c0.445-1.673,0.909-3.296,1.364-4.889c0.912-3.185,1.814-6.236,2.59-9.183
			c1.553-5.886,2.602-11.401,2.626-16.52c0.007-0.626-0.03-1.179-0.034-1.769c0.018-0.523-0.088-1.312-0.149-1.999
			c-0.034-0.352-0.069-0.703-0.103-1.053l-0.006-0.066c0.009,0.054-0.028-0.214,0.018,0.105l-0.016-0.102l-0.032-0.205l-0.062-0.41
			c-0.032-0.273-0.096-0.545-0.152-0.817c-0.057-0.272-0.104-0.545-0.183-0.813c-0.535-2.163-1.418-4.254-2.518-6.16
			c-2.199-3.826-5.282-6.912-8.527-8.782c-1.622-0.949-3.288-1.566-4.908-1.877c-1.622-0.316-3.192-0.269-4.679,0.019
			c-0.362,0.068-0.637,0.158-0.967,0.219c-0.399,0.146-0.794,0.291-1.184,0.434c-0.319,0.156-0.639,0.305-0.961,0.45
			c-0.323,0.143-0.598,0.37-0.901,0.542c-1.163,0.769-2.206,1.708-3.009,2.786c-1.698,2.103-2.597,4.528-3.056,6.662
			c-0.457,2.157-0.424,4.071-0.268,5.623c0.064,0.386,0.123,0.749,0.179,1.088c0.029,0.17,0.044,0.347,0.079,0.5
			c0.038,0.151,0.074,0.296,0.109,0.435c0.145,0.566,0.2,1.079,0.371,1.52c0.264,0.871,0.293,1.386,0.076,1.526
			c-0.217,0.14-0.674-0.098-1.36-0.696c-0.356-0.265-0.708-0.77-1.139-1.364c-0.106-0.153-0.216-0.311-0.33-0.476
			c-0.107-0.167-0.188-0.342-0.287-0.525c-0.19-0.365-0.39-0.762-0.598-1.191c-0.714-1.739-1.308-4.072-1.256-6.891
			c0.065-2.797,0.686-6.124,2.624-9.422c0.924-1.665,2.242-3.28,3.913-4.716c0.434-0.341,0.844-0.729,1.326-1.036
			c0.487-0.304,0.979-0.611,1.477-0.923l0.094-0.058c0.072-0.035-0.095,0.038,0.174-0.086l0.04-0.02l0.159-0.08l0.32-0.16
			c0.214-0.107,0.429-0.214,0.645-0.322c0.588-0.234,1.224-0.502,1.815-0.687c2.314-0.745,4.922-1.087,7.549-0.848
			c2.629,0.228,5.266,0.958,7.74,2.119c4.96,2.319,9.374,6.148,12.769,11.14c1.693,2.502,3.136,5.314,4.141,8.45
			c0.136,0.387,0.241,0.79,0.353,1.191c0.111,0.402,0.226,0.803,0.31,1.219l0.136,0.621l0.067,0.312l0.033,0.156l0.047,0.3
			c0.056,0.347,0.111,0.695,0.168,1.045c0.107,0.718,0.239,1.335,0.308,2.244c0.074,0.839,0.174,1.722,0.213,2.545
			c0.351,6.496-0.607,13.071-1.968,19.484c-0.683,3.212-1.468,6.394-2.229,9.571c-0.379,1.588-0.761,3.176-1.111,4.757
			c-0.185,0.795-0.351,1.584-0.514,2.373l-0.225,1.083c-0.076,0.417-0.152,0.836-0.228,1.255l-0.229,1.26l-0.156,1.115l-0.159,1.113
			c-0.049,0.378-0.082,0.777-0.125,1.165c-0.084,0.782-0.171,1.566-0.205,2.35c-0.048,0.784-0.112,1.573-0.109,2.355
			c-0.076,3.137,0.126,6.273,0.719,9.241c0.591,2.966,1.585,5.749,3.025,8.105l0.259,0.452c0.09,0.147,0.202,0.274,0.301,0.413
			l0.601,0.824c0.182,0.292,0.427,0.523,0.653,0.773l0.673,0.752c0.224,0.252,0.504,0.446,0.748,0.677l0.376,0.337l0.187,0.17
			l0.093,0.086l0.046,0.043c0.175,0.141-0.189-0.145-0.123-0.095l1.14,0.853c0.222,0.123,0.43,0.253,0.644,0.395
			c2.243,1.339,4.905,2.1,7.81,2.235c2.9,0.138,6.01-0.353,9.018-1.4c3.008-1.045,5.917-2.641,8.444-4.665
			c1.263-1.012,2.431-2.13,3.465-3.332l0.374-0.459l0.188-0.229l0.094-0.114l0.047-0.057c0.048-0.06-0.258,0.341-0.101,0.133
			l0.913-1.259l0.458-0.63c0.147-0.206,0.329-0.44,0.404-0.587l0.604-0.992c0.413-0.604,0.825-1.44,1.244-2.2l0.315-0.579
			l0.278-0.606l0.562-1.212c0.377-0.808,0.672-1.673,1.019-2.507c0.308-0.858,0.587-1.737,0.884-2.608
			c1.078-3.547,1.811-7.324,2.271-11.235c0.46-3.913,0.647-7.96,0.642-12.089c-0.03-2.187-0.06-4.381-0.09-6.582
			c0-2.408,0.086-5.007,0.571-7.854c0.1-0.696,0.293-1.45,0.448-2.171l0.318-1.125l0.166-0.561l0.206-0.576
			c0.508-1.517,1.302-3.103,2.276-4.604c1.007-1.51,2.285-2.913,3.726-4.092l0.133-0.113c-0.005-0.003,0.563-0.426,0.36-0.273
			l0.167-0.12l0.334-0.24l0.168-0.12l0.37-0.239c0.248-0.157,0.499-0.31,0.752-0.459c0.541-0.328,0.926-0.49,1.383-0.712
			c0.438-0.217,0.903-0.383,1.363-0.553c1.852-0.662,3.805-0.976,5.66-0.984c1.86-0.011,3.622,0.265,5.244,0.713
			c3.246,0.911,5.966,2.44,8.306,4.252c2.331,1.829,4.331,3.943,5.97,6.368c0.82,1.211,1.555,2.497,2.183,3.863l0.451,1.04
			l0.402,1.075c0.129,0.361,0.239,0.738,0.354,1.107l0.084,0.278l0.11,0.424l0.094,0.386l0.189,0.772l0.094,0.386l0.104,0.516
			c0.132,0.695,0.279,1.434,0.379,2.094l0.244,1.885l0.158,1.844c0.163,2.432,0.161,4.75,0.11,6.955
			c-0.115,4.416-0.386,8.362-0.249,11.924l0.065,1.312l0.113,1.263l0.013,0.158l0.007,0.079c0.011,0.091-0.075-0.522-0.031-0.217
			l0.059,0.377l0.119,0.753l0.236,1.504c0.021,0.114,0.037,0.275,0.062,0.351l0.071,0.257l0.136,0.513l0.25,1.031
			c0.028,0.164,0.098,0.36,0.165,0.554l0.195,0.578l0.38,1.158c2.246,6.123,6.462,11.526,11.563,15.295
			c2.551,1.89,5.324,3.382,8.186,4.412c0.72,0.243,1.426,0.536,2.162,0.687l1.09,0.282l0.543,0.145
			c-0.539-0.092-0.1-0.017-0.198-0.034l0.085,0.014l0.171,0.028l0.341,0.056l1.361,0.223l0.679,0.111
			c0.106,0.015,0.241,0.044,0.323,0.048l0.248,0.014c0.665,0.034,1.307,0.099,1.985,0.15c5.982,0.207,11.947-1.36,17.073-4.038
			c2.546-1.381,4.879-3.039,6.945-4.9c0.496-0.484,1.034-0.929,1.5-1.432c0.463-0.507,0.923-1.011,1.382-1.513
			c0.442-0.515,0.828-1.066,1.248-1.59c0.437-0.515,0.774-1.087,1.135-1.642l0.542-0.83l0.136-0.207
			c0.095-0.177-0.092,0.185-0.06,0.122l0.035-0.065l0.069-0.13l0.278-0.519l0.553-1.033l0.276-0.514l0.133-0.253l0.093-0.212
			c0.256-0.564,0.511-1.124,0.765-1.682c0.249-0.593,0.479-1.247,0.722-1.863c0.907-2.525,1.614-5.117,2.123-7.747
			c1.013-5.268,1.417-10.581,1.69-15.715c0.279-5.131,0.426-10.104,0.809-14.814c0.755-9.55,2.721-17.769,5.639-24.045
			c1.457-3.13,3.083-5.763,4.734-7.858c0.393-0.534,0.853-0.996,1.251-1.461c0.42-0.45,0.778-0.91,1.203-1.285
			c0.415-0.378,0.81-0.739,1.186-1.081c0.38-0.334,0.721-0.665,1.103-0.919c0.737-0.532,1.391-0.982,1.962-1.351
			c0.597-0.338,1.13-0.574,1.558-0.754C327.746,138.154,328.247,138.087,328.395,138.298z"/>
	</g>
	<g>
		<path class="st0" d="M462.017,203.533c0.208,0.033,0.343,0.424,0.405,1.169c0.031,0.373,0.044,0.834,0.039,1.382
			c-0.017,0.546,0.001,1.193-0.112,1.899c-0.192,1.419-0.414,3.203-0.987,5.236c-0.133,0.513-0.271,1.046-0.414,1.598
			c-0.183,0.539-0.373,1.097-0.569,1.674c-0.202,0.578-0.41,1.174-0.624,1.789c-0.235,0.607-0.516,1.215-0.787,1.851
			c-0.279,0.632-0.555,1.29-0.867,1.951c-0.34,0.647-0.689,1.311-1.047,1.991c-0.683,1.387-1.591,2.723-2.48,4.168
			c-0.446,0.722-0.987,1.397-1.497,2.121c-0.524,0.713-1.038,1.461-1.648,2.153c-0.594,0.708-1.2,1.429-1.817,2.163
			c-0.654,0.702-1.338,1.401-2.03,2.12c-2.822,2.813-6.131,5.572-10.002,8.017c-0.992,0.572-1.999,1.153-3.019,1.741
			c-1.045,0.573-2.205,1.087-3.335,1.636c-0.281,0.13-0.582,0.283-0.85,0.393l-0.792,0.314c-0.529,0.21-1.062,0.421-1.599,0.633
			l-0.807,0.319l-0.101,0.04l-0.261,0.086l-0.226,0.07l-0.453,0.141c-0.606,0.187-1.216,0.375-1.83,0.564
			c-9.844,2.885-21.546,3.145-33.148-0.439c-5.785-1.801-11.533-4.545-16.861-8.337c-0.673-0.431-1.35-1.014-2.026-1.542
			c-0.667-0.537-1.375-1.094-2.008-1.63c-0.552-0.509-1.106-1.019-1.663-1.531l-0.835-0.77l-0.105-0.096l-0.254-0.256l-0.219-0.226
			l-0.438-0.453c-2.338-2.42-4.489-5.073-6.421-7.921c-3.862-5.699-6.806-12.191-8.654-19.146
			c-1.816-6.964-2.463-14.425-1.798-21.858c0.35-3.717,0.972-7.442,1.938-11.114c0.988-3.665,2.275-7.282,3.868-10.8
			c0.421-0.87,0.843-1.741,1.266-2.613c0.442-0.863,0.931-1.705,1.398-2.56c0.454-0.862,0.996-1.678,1.513-2.508l0.785-1.243
			c0.269-0.416,0.587-0.84,0.879-1.259l0.901-1.26l0.453-0.629c0.152-0.211,0.283-0.358,0.425-0.541
			c0.559-0.697,1.118-1.395,1.679-2.094l0.169-0.203l0.062-0.069l0.124-0.138l0.249-0.277l0.498-0.554l1-1.107
			c0.328-0.375,0.675-0.731,1.033-1.076l1.062-1.05c2.863-2.768,5.935-5.278,9.197-7.45c3.268-2.162,6.689-4.028,10.213-5.597
			c3.523-1.574,7.178-2.765,10.861-3.696c0.927-0.211,1.843-0.461,2.775-0.633c0.933-0.168,1.863-0.336,2.792-0.503
			c0.932-0.15,1.871-0.244,2.804-0.365c0.474-0.051,0.917-0.128,1.416-0.155l1.472-0.099c0.963-0.057,2.021-0.145,2.808-0.129
			c0.907-0.005,1.813-0.011,2.716-0.016c1.948,0.047,3.87,0.22,5.765,0.509c3.789,0.579,7.483,1.623,11.016,3.218
			c3.52,1.593,6.912,3.782,9.75,6.796c1.417,1.497,2.671,3.215,3.659,5.093c0.25,0.467,0.486,0.942,0.693,1.432
			c0.223,0.481,0.408,0.979,0.588,1.477c0.183,0.463,0.356,1.093,0.516,1.649c0.095,0.326,0.125,0.486,0.169,0.678l0.128,0.572
			l0.071,0.332l0.032,0.193l0.063,0.386l0.12,0.771c0.059,0.518,0.103,1.038,0.146,1.556c0.014,0.521,0.036,1.041,0.031,1.559
			c-0.023,0.517-0.029,1.037-0.079,1.549c-0.177,2.054-0.643,4.039-1.309,5.878c-1.342,3.69-3.423,6.773-5.717,9.37
			c-2.307,2.6-4.856,4.748-7.5,6.589c-2.643,1.837-5.412,3.362-8.227,4.604l-0.538,0.236l-0.515,0.207l-1.026,0.412
			c-0.686,0.265-1.355,0.563-2.045,0.796c-1.375,0.478-2.726,0.985-4.1,1.376c-0.684,0.205-1.361,0.419-2.04,0.611
			c-0.684,0.177-1.364,0.352-2.041,0.527c-1.348,0.374-2.713,0.612-4.048,0.91c-5.373,1.056-10.618,1.489-15.605,1.483
			c-4.99-0.012-9.726-0.488-14.127-1.307c-0.547-0.087-1.103-0.205-1.657-0.329c-0.551-0.121-1.099-0.241-1.642-0.36
			c-0.27-0.06-0.539-0.12-0.807-0.18c-0.248-0.066-0.495-0.132-0.741-0.198c-0.492-0.132-0.981-0.263-1.465-0.392
			c-0.242-0.065-0.484-0.13-0.724-0.194l-0.258-0.069l-0.185-0.055l-0.369-0.11c-0.487-0.149-0.97-0.298-1.449-0.444
			c-0.934-0.301-1.853-0.598-2.756-0.889c-3.554-1.174-6.708-2.16-9.603-2.645c-0.361-0.055-0.717-0.109-1.07-0.163
			c-0.351-0.039-0.699-0.077-1.043-0.115c-0.322-0.024-0.639-0.047-0.954-0.07c-0.144-0.017-0.344-0.014-0.528-0.015
			c-0.186-0.001-0.371-0.002-0.554-0.003c-1.198-0.004-2.407,0.137-3.523,0.392c-2.23,0.547-4.149,1.457-5.586,2.516
			c-1.456,1.046-2.471,2.198-3.142,3.237c-0.088,0.13-0.172,0.257-0.255,0.379c-0.075,0.126-0.133,0.254-0.199,0.376
			c-0.124,0.244-0.264,0.477-0.366,0.69c-0.163,0.43-0.372,0.774-0.491,1.128c-0.237,0.703-0.461,1.059-0.671,1.049
			c-0.21-0.009-0.401-0.384-0.574-1.106c-0.086-0.358-0.073-0.88-0.072-1.493c0.019-0.3,0.076-0.606,0.127-0.948
			c0.029-0.169,0.052-0.349,0.094-0.528c0.052-0.176,0.106-0.357,0.162-0.544c0.441-1.503,1.389-3.274,2.971-4.942
			c1.568-1.683,3.771-3.222,6.561-4.334c1.408-0.535,2.95-0.942,4.68-1.148c0.182-0.021,0.366-0.042,0.551-0.063
			c0.186-0.021,0.359-0.045,0.591-0.054c0.435-0.023,0.887-0.051,1.327-0.065c0.424-0.001,0.854-0.003,1.288-0.004
			c0.431,0.018,0.866,0.035,1.306,0.053c3.51,0.205,7.145,0.992,10.81,1.858c0.906,0.21,1.827,0.424,2.764,0.641
			c0.459,0.101,0.923,0.203,1.39,0.306l0.349,0.075l0.175,0.037l0.044,0.009c0.031,0.007-0.113-0.028-0.03-0.009l0.092,0.017
			c0.245,0.046,0.49,0.091,0.737,0.137c0.493,0.092,0.99,0.185,1.491,0.279c0.25,0.047,0.502,0.094,0.754,0.141l0.712,0.1
			c0.474,0.067,0.951,0.134,1.431,0.202c0.477,0.072,0.961,0.14,1.471,0.183c4.016,0.456,8.292,0.608,12.751,0.357
			c4.456-0.256,9.101-0.89,13.807-2.054c1.168-0.325,2.364-0.585,3.536-0.973c0.589-0.181,1.182-0.362,1.777-0.544
			c0.587-0.205,1.177-0.411,1.769-0.619c1.192-0.393,2.355-0.894,3.542-1.359c0.596-0.226,1.169-0.515,1.758-0.77l0.881-0.395
			l0.442-0.197l0.407-0.2c2.228-1.089,4.385-2.39,6.405-3.906c2.016-1.511,3.892-3.227,5.454-5.112
			c1.562-1.881,2.794-3.937,3.468-6.004c0.339-1.033,0.541-2.065,0.6-3.087c0.021-0.256,0.006-0.511,0.018-0.766l-0.036-0.764
			l-0.094-0.764l-0.118-0.623l-0.142-0.569l-0.071-0.285l-0.018-0.071l-0.014-0.035l-0.026-0.066
			c-0.079-0.189-0.098-0.323-0.215-0.587c-0.094-0.238-0.184-0.479-0.304-0.708c-0.102-0.236-0.226-0.464-0.356-0.69
			c-0.507-0.909-1.159-1.775-1.963-2.582c-1.591-1.62-3.739-3.013-6.193-4.061c-2.45-1.055-5.185-1.794-8-2.176
			c-1.407-0.193-2.834-0.299-4.254-0.315c-0.781,0.016-1.564,0.033-2.349,0.049c-0.906-0.003-1.538,0.089-2.271,0.14l-1.074,0.083
			c-0.352,0.019-0.751,0.095-1.125,0.139c-0.759,0.11-1.524,0.189-2.283,0.32c-0.757,0.145-1.516,0.289-2.277,0.435
			c-0.76,0.146-1.508,0.365-2.266,0.541c-3.008,0.793-6.003,1.784-8.886,3.097c-2.883,1.307-5.682,2.851-8.351,4.624
			c-2.663,1.784-5.156,3.837-7.476,6.076l-0.861,0.849c-0.292,0.278-0.574,0.565-0.835,0.869l-0.806,0.893l-0.404,0.445
			l-0.202,0.222l-0.101,0.111l-0.051,0.055c-0.041,0.047,0.178-0.219,0.061-0.075c-0.562,0.698-1.123,1.395-1.683,2.091
			c-0.133,0.169-0.297,0.358-0.403,0.511l-0.324,0.461l-0.651,0.916c-0.216,0.311-0.439,0.594-0.653,0.924l-0.638,1.009
			c-0.422,0.674-0.871,1.33-1.24,2.035c-0.381,0.696-0.788,1.378-1.152,2.08c-0.349,0.711-0.698,1.422-1.046,2.13
			c-1.318,2.873-2.397,5.833-3.24,8.837c-0.821,3.012-1.359,6.068-1.687,9.114c-0.616,6.108-0.181,12.152,1.193,17.874
			c1.41,5.715,3.71,11.1,6.745,15.824c1.518,2.362,3.21,4.564,5.046,6.576l0.343,0.378l0.171,0.189l0.043,0.047
			c-0.05-0.048,0.173,0.174-0.102-0.096l0.102,0.099l0.813,0.794c0.541,0.528,1.08,1.055,1.617,1.579
			c0.504,0.443,0.972,0.813,1.453,1.226c0.49,0.4,0.915,0.819,1.481,1.202c4.224,3.211,8.883,5.658,13.642,7.352
			c4.761,1.709,9.639,2.586,14.339,2.845c4.707,0.249,9.254-0.171,13.46-1.137c0.525-0.128,1.046-0.255,1.564-0.381l0.389-0.094
			l0.194-0.047l0.049-0.012c-0.05,0.018,0.181-0.057-0.1,0.038l0.104-0.034l0.825-0.269c0.548-0.179,1.093-0.356,1.635-0.533
			l0.81-0.264c0.262-0.089,0.466-0.188,0.701-0.28c0.912-0.389,1.814-0.706,2.719-1.125c0.91-0.443,1.808-0.881,2.693-1.312
			c3.479-1.869,6.555-4.046,9.258-6.308c0.666-0.581,1.32-1.151,1.962-1.712c0.608-0.6,1.204-1.19,1.789-1.768
			c0.607-0.562,1.125-1.183,1.657-1.772c0.519-0.599,1.075-1.154,1.541-1.757c0.928-1.207,1.897-2.318,2.656-3.492
			c0.402-0.575,0.794-1.135,1.176-1.681c0.359-0.561,0.685-1.122,1.019-1.66c2.63-4.334,4.168-8.032,5.214-10.566
			c0.298-0.626,0.469-1.202,0.679-1.688c0.199-0.488,0.383-0.898,0.552-1.225C461.533,203.826,461.809,203.5,462.017,203.533z"/>
	</g>
	<g>
		<path class="st0" d="M592.634,203.533c0.208,0.033,0.343,0.424,0.405,1.169c0.031,0.373,0.044,0.834,0.039,1.382
			c-0.017,0.546,0.001,1.193-0.112,1.899c-0.192,1.419-0.414,3.203-0.987,5.236c-0.133,0.513-0.271,1.046-0.414,1.598
			c-0.183,0.539-0.373,1.097-0.569,1.674c-0.202,0.578-0.41,1.174-0.624,1.789c-0.235,0.607-0.516,1.215-0.787,1.851
			c-0.279,0.632-0.555,1.29-0.867,1.951c-0.34,0.647-0.689,1.311-1.047,1.991c-0.682,1.387-1.591,2.723-2.48,4.168
			c-0.446,0.722-0.987,1.397-1.497,2.121c-0.524,0.713-1.038,1.461-1.648,2.153c-0.594,0.708-1.2,1.429-1.817,2.163
			c-0.654,0.702-1.338,1.401-2.03,2.12c-2.822,2.813-6.131,5.572-10.002,8.017c-0.992,0.572-1.999,1.153-3.019,1.741
			c-1.045,0.573-2.205,1.087-3.335,1.636c-0.281,0.13-0.583,0.283-0.85,0.393l-0.792,0.314c-0.529,0.21-1.062,0.421-1.599,0.633
			l-0.807,0.319l-0.101,0.04l-0.261,0.086l-0.226,0.07l-0.453,0.141c-0.606,0.187-1.216,0.375-1.83,0.564
			c-9.844,2.885-21.546,3.145-33.148-0.439c-5.785-1.801-11.533-4.545-16.861-8.337c-0.673-0.431-1.35-1.014-2.026-1.542
			c-0.667-0.537-1.375-1.094-2.008-1.63c-0.552-0.509-1.106-1.019-1.663-1.531l-0.835-0.77l-0.105-0.096l-0.254-0.256l-0.219-0.226
			l-0.438-0.453c-2.338-2.42-4.489-5.073-6.421-7.921c-3.862-5.699-6.806-12.191-8.654-19.146
			c-1.816-6.964-2.463-14.425-1.798-21.858c0.35-3.717,0.972-7.442,1.938-11.114c0.988-3.665,2.275-7.282,3.868-10.8
			c0.421-0.87,0.843-1.741,1.266-2.613c0.442-0.863,0.931-1.705,1.398-2.56c0.454-0.862,0.996-1.678,1.513-2.508l0.785-1.243
			c0.269-0.416,0.587-0.84,0.879-1.259l0.901-1.26l0.453-0.629c0.152-0.211,0.283-0.358,0.425-0.541
			c0.559-0.697,1.118-1.395,1.679-2.094l0.169-0.203l0.062-0.069l0.124-0.138l0.249-0.277l0.498-0.554l1-1.107
			c0.328-0.375,0.675-0.731,1.033-1.076l1.062-1.05c2.863-2.768,5.935-5.278,9.197-7.45c3.268-2.162,6.689-4.028,10.213-5.597
			c3.523-1.574,7.178-2.765,10.861-3.696c0.927-0.211,1.843-0.461,2.775-0.633c0.933-0.168,1.863-0.336,2.792-0.503
			c0.932-0.15,1.871-0.244,2.804-0.365c0.474-0.051,0.917-0.128,1.416-0.155l1.472-0.099c0.963-0.057,2.021-0.145,2.808-0.129
			c0.907-0.005,1.813-0.011,2.716-0.016c1.948,0.047,3.87,0.22,5.765,0.509c3.789,0.579,7.483,1.623,11.016,3.218
			c3.52,1.593,6.912,3.782,9.75,6.796c1.417,1.497,2.671,3.215,3.659,5.093c0.25,0.467,0.486,0.942,0.693,1.432
			c0.223,0.481,0.408,0.979,0.588,1.477c0.183,0.463,0.356,1.093,0.516,1.649c0.095,0.326,0.125,0.486,0.169,0.678l0.128,0.572
			l0.071,0.332l0.032,0.193l0.063,0.386l0.12,0.771c0.059,0.518,0.103,1.038,0.146,1.556c0.014,0.521,0.036,1.041,0.031,1.559
			c-0.023,0.517-0.029,1.037-0.079,1.549c-0.177,2.054-0.643,4.039-1.309,5.878c-1.342,3.69-3.423,6.773-5.717,9.37
			c-2.307,2.6-4.856,4.748-7.5,6.589c-2.643,1.837-5.412,3.362-8.227,4.604l-0.538,0.236l-0.515,0.207l-1.026,0.412
			c-0.686,0.265-1.355,0.563-2.045,0.796c-1.375,0.478-2.726,0.985-4.099,1.376c-0.684,0.205-1.361,0.419-2.04,0.611
			c-0.684,0.177-1.364,0.352-2.041,0.527c-1.348,0.374-2.713,0.612-4.048,0.91c-5.373,1.056-10.618,1.489-15.605,1.483
			c-4.99-0.012-9.726-0.488-14.127-1.307c-0.547-0.087-1.103-0.205-1.657-0.329c-0.551-0.121-1.099-0.241-1.642-0.36
			c-0.27-0.06-0.539-0.12-0.807-0.18c-0.248-0.066-0.495-0.132-0.741-0.198c-0.492-0.132-0.981-0.263-1.465-0.392
			c-0.242-0.065-0.484-0.13-0.724-0.194l-0.258-0.069l-0.185-0.055l-0.369-0.11c-0.487-0.149-0.97-0.298-1.449-0.444
			c-0.934-0.301-1.853-0.598-2.756-0.889c-3.554-1.174-6.708-2.16-9.603-2.645c-0.361-0.055-0.717-0.109-1.07-0.163
			c-0.351-0.039-0.699-0.077-1.043-0.115c-0.322-0.024-0.639-0.047-0.954-0.07c-0.144-0.017-0.344-0.014-0.528-0.015
			c-0.186-0.001-0.371-0.002-0.554-0.003c-1.198-0.004-2.407,0.137-3.523,0.392c-2.23,0.547-4.149,1.457-5.586,2.516
			c-1.456,1.046-2.471,2.198-3.142,3.237c-0.088,0.13-0.173,0.257-0.255,0.379c-0.075,0.126-0.133,0.254-0.199,0.376
			c-0.124,0.244-0.264,0.477-0.366,0.69c-0.163,0.43-0.372,0.774-0.491,1.128c-0.237,0.703-0.461,1.059-0.671,1.049
			c-0.21-0.009-0.401-0.384-0.574-1.106c-0.086-0.358-0.073-0.88-0.072-1.493c0.019-0.3,0.076-0.606,0.127-0.948
			c0.029-0.169,0.052-0.349,0.094-0.528c0.052-0.176,0.106-0.357,0.162-0.544c0.441-1.503,1.389-3.274,2.971-4.942
			c1.568-1.683,3.771-3.222,6.561-4.334c1.408-0.535,2.95-0.942,4.68-1.148c0.182-0.021,0.366-0.042,0.551-0.063
			c0.186-0.021,0.359-0.045,0.591-0.054c0.435-0.023,0.887-0.051,1.327-0.065c0.424-0.001,0.854-0.003,1.288-0.004
			c0.431,0.018,0.866,0.035,1.306,0.053c3.51,0.205,7.145,0.992,10.81,1.858c0.906,0.21,1.827,0.424,2.764,0.641
			c0.459,0.101,0.923,0.203,1.39,0.306l0.349,0.075l0.175,0.037l0.044,0.009c0.031,0.007-0.113-0.028-0.03-0.009l0.092,0.017
			c0.245,0.046,0.49,0.091,0.737,0.137c0.493,0.092,0.99,0.185,1.491,0.279c0.25,0.047,0.502,0.094,0.754,0.141l0.712,0.1
			c0.474,0.067,0.951,0.134,1.431,0.202c0.477,0.072,0.961,0.14,1.471,0.183c4.016,0.456,8.292,0.608,12.751,0.357
			c4.456-0.256,9.101-0.89,13.807-2.054c1.168-0.325,2.364-0.585,3.536-0.973c0.589-0.181,1.182-0.362,1.777-0.544
			c0.587-0.205,1.177-0.411,1.769-0.619c1.192-0.393,2.355-0.894,3.542-1.359c0.596-0.226,1.169-0.515,1.758-0.77l0.881-0.395
			l0.442-0.197l0.407-0.2c2.228-1.089,4.385-2.39,6.405-3.906c2.016-1.511,3.892-3.227,5.454-5.112
			c1.562-1.881,2.794-3.937,3.468-6.004c0.339-1.033,0.541-2.065,0.6-3.087c0.021-0.256,0.006-0.511,0.018-0.766l-0.036-0.764
			l-0.094-0.764l-0.118-0.623l-0.142-0.569l-0.071-0.285l-0.018-0.071l-0.014-0.035l-0.026-0.066
			c-0.079-0.189-0.097-0.323-0.215-0.587c-0.094-0.238-0.184-0.479-0.304-0.708c-0.102-0.236-0.226-0.464-0.356-0.69
			c-0.507-0.909-1.159-1.775-1.963-2.582c-1.591-1.62-3.739-3.013-6.193-4.061c-2.45-1.055-5.185-1.794-8-2.176
			c-1.407-0.193-2.834-0.299-4.255-0.315c-0.781,0.016-1.564,0.033-2.349,0.049c-0.906-0.003-1.538,0.089-2.271,0.14l-1.074,0.083
			c-0.352,0.019-0.751,0.095-1.125,0.139c-0.759,0.11-1.524,0.189-2.283,0.32c-0.757,0.145-1.516,0.289-2.277,0.435
			c-0.76,0.146-1.508,0.365-2.266,0.541c-3.008,0.793-6.003,1.784-8.886,3.097c-2.883,1.307-5.682,2.851-8.351,4.624
			c-2.662,1.784-5.156,3.837-7.476,6.076l-0.861,0.849c-0.292,0.278-0.574,0.565-0.835,0.869l-0.806,0.893l-0.404,0.445
			l-0.202,0.222l-0.101,0.111l-0.051,0.055c-0.041,0.047,0.178-0.219,0.061-0.075c-0.562,0.698-1.123,1.395-1.682,2.091
			c-0.133,0.169-0.297,0.358-0.403,0.511l-0.324,0.461l-0.651,0.916c-0.216,0.311-0.439,0.594-0.653,0.924l-0.638,1.009
			c-0.422,0.674-0.871,1.33-1.24,2.035c-0.381,0.696-0.788,1.378-1.152,2.08c-0.349,0.711-0.698,1.422-1.046,2.13
			c-1.318,2.873-2.397,5.833-3.24,8.837c-0.821,3.012-1.359,6.068-1.687,9.114c-0.616,6.108-0.181,12.152,1.193,17.874
			c1.41,5.715,3.71,11.1,6.745,15.824c1.518,2.362,3.21,4.564,5.046,6.576l0.343,0.378l0.171,0.189l0.043,0.047
			c-0.05-0.048,0.173,0.174-0.102-0.096l0.102,0.099l0.813,0.794c0.541,0.528,1.08,1.055,1.617,1.579
			c0.504,0.443,0.972,0.813,1.453,1.226c0.49,0.4,0.915,0.819,1.481,1.202c4.225,3.211,8.883,5.658,13.642,7.352
			c4.761,1.709,9.639,2.586,14.339,2.845c4.707,0.249,9.254-0.171,13.46-1.137c0.524-0.128,1.046-0.255,1.564-0.381l0.389-0.094
			l0.194-0.047l0.049-0.012c-0.05,0.018,0.181-0.057-0.1,0.038l0.104-0.034l0.825-0.269c0.548-0.179,1.093-0.356,1.635-0.533
			l0.81-0.264c0.262-0.089,0.466-0.188,0.701-0.28c0.912-0.389,1.814-0.706,2.719-1.125c0.91-0.443,1.808-0.881,2.693-1.312
			c3.479-1.869,6.555-4.046,9.258-6.308c0.666-0.581,1.32-1.151,1.962-1.712c0.608-0.6,1.204-1.19,1.789-1.768
			c0.607-0.562,1.125-1.183,1.657-1.772c0.519-0.599,1.075-1.154,1.541-1.757c0.928-1.207,1.897-2.318,2.656-3.492
			c0.402-0.575,0.794-1.135,1.176-1.681c0.359-0.561,0.685-1.122,1.019-1.66c2.63-4.334,4.168-8.032,5.214-10.566
			c0.298-0.626,0.469-1.202,0.679-1.688c0.199-0.488,0.383-0.898,0.552-1.225C592.15,203.826,592.426,203.5,592.634,203.533z"/>
	</g>
	<g>
		<g>
			<path class="st0" d="M634.789,252.959c-1.111-0.004-2.058-15.441-2.693-40.396c-0.634-24.955-0.956-59.427-0.813-97.503
				c0.071-19.038,0.251-37.174,0.517-53.669c0.067-4.11,0.111-8.011-0.195-11.675c-0.318-3.651-0.946-7.081-2.157-10.075
				c-0.139-0.397-0.298-0.711-0.446-1.052l-0.222-0.506c-0.086-0.181-0.207-0.394-0.309-0.588l-0.318-0.595l-0.158-0.297
				l-0.02-0.037c0.101,0.172,0.017,0.03,0.034,0.061l-0.038-0.061l-0.077-0.121c-0.203-0.324-0.404-0.647-0.605-0.969
				c-0.87-1.245-1.824-2.418-2.91-3.439c-1.093-1.005-2.229-1.951-3.465-2.7l-0.453-0.296l-0.47-0.261
				c-0.313-0.175-0.624-0.348-0.933-0.521c-0.321-0.15-0.64-0.3-0.957-0.448l-0.475-0.225l-0.486-0.188
				c-0.323-0.127-0.645-0.252-0.964-0.377c-0.327-0.102-0.652-0.204-0.975-0.305c-0.642-0.228-1.302-0.338-1.944-0.505
				c-0.648-0.123-1.293-0.232-1.931-0.314c-0.32-0.029-0.638-0.057-0.954-0.085c-0.157-0.013-0.319-0.033-0.47-0.041l-0.44-0.006
				c-2.563-0.069-4.882,0.315-7.037,0.999c-4.304,1.377-7.585,3.833-9.908,6.125c-2.309,2.335-3.708,4.576-4.601,6.09
				c-0.216,0.386-0.44,0.706-0.605,1.023c-0.167,0.314-0.317,0.573-0.451,0.778c-0.268,0.41-0.471,0.6-0.603,0.559
				c-0.133-0.041-0.193-0.312-0.183-0.802c0.005-0.245,0.027-0.544,0.067-0.897c0.036-0.352,0.152-0.77,0.262-1.242
				c0.477-1.875,1.517-4.566,3.744-7.554c1.121-1.477,2.544-3,4.31-4.449c1.767-1.443,3.894-2.8,6.399-3.846
				c1.254-0.515,2.593-0.976,4.023-1.293c0.358-0.078,0.719-0.157,1.084-0.237l0.068-0.015l0.034-0.007
				c-0.009,0,0.205-0.027,0.129-0.018l0.125-0.018l0.251-0.035l0.505-0.071c0.35-0.043,0.653-0.105,1.048-0.133
				c0.403-0.024,0.809-0.048,1.217-0.073l0.617-0.032c0.202-0.004,0.394,0.005,0.593,0.007c0.396,0.008,0.794,0.017,1.195,0.026
				c0.799,0.046,1.609,0.127,2.426,0.231c0.808,0.147,1.642,0.248,2.455,0.473c0.41,0.102,0.823,0.205,1.238,0.309
				c0.407,0.131,0.817,0.262,1.229,0.395l0.62,0.202l0.609,0.243c0.407,0.164,0.816,0.33,1.228,0.496
				c0.4,0.194,0.802,0.388,1.207,0.584l0.607,0.299l0.591,0.338c1.605,0.867,3.118,1.98,4.584,3.212
				c1.459,1.248,2.789,2.713,4.009,4.32c0.287,0.417,0.575,0.835,0.865,1.256l0.108,0.158l0.054,0.079
				c0.033,0.054-0.035-0.065,0.08,0.132l0.021,0.036l0.171,0.29l0.342,0.581c0.115,0.2,0.226,0.375,0.346,0.597l0.367,0.721
				c0.24,0.481,0.502,0.978,0.687,1.441c1.69,3.76,2.562,7.86,3.051,11.967c0.474,4.117,0.532,8.274,0.569,12.408
				c0.142,16.497,0.186,34.634,0.115,53.672c-0.142,38.075-0.721,72.545-1.542,97.494
				C636.963,237.534,635.899,252.963,634.789,252.959z"/>
		</g>
		<g>
			<path class="st0" d="M719.483,114.024c0.115,0.098-0.126,0.581-0.696,1.419c-0.285,0.419-0.653,0.927-1.099,1.52
				c-0.454,0.586-1.036,1.208-1.675,1.93c-2.587,2.838-6.771,6.641-12.754,10.186c-3.015,1.717-6.45,3.387-10.302,4.791
				c-3.859,1.375-8.134,2.454-12.719,3.066c-0.573,0.077-1.15,0.154-1.731,0.232c-0.584,0.043-1.172,0.086-1.763,0.129
				c-0.592,0.042-1.187,0.085-1.785,0.127c-0.602,0.032-1.222,0.02-1.838,0.031c-0.618,0.004-1.239,0.008-1.863,0.013
				c-0.629,0.008-1.196-0.053-1.801-0.077c-0.597-0.033-1.197-0.066-1.8-0.1l-0.226-0.013l-0.113-0.006l-0.182-0.014l-0.467-0.048
				l-0.937-0.097c-5.004-0.554-10.027-1.701-15.055-2.925c-2.516-0.611-4.98-1.222-7.403-1.768
				c-1.209-0.273-2.419-0.534-3.589-0.761c-0.579-0.121-1.189-0.228-1.796-0.336l-0.88-0.155l-0.876-0.135
				c-4.659-0.706-9.215-0.922-13.442-0.436c-2.112,0.242-4.138,0.65-6.042,1.224c-0.471,0.157-0.948,0.29-1.405,0.461
				c-0.455,0.177-0.906,0.353-1.354,0.528c-0.868,0.398-1.749,0.789-2.5,1.235l-0.584,0.32c-0.196,0.11-0.408,0.264-0.61,0.393
				c-0.204,0.135-0.408,0.269-0.61,0.402l-0.303,0.2l-0.076,0.05l-0.038,0.025l-0.019,0.012c-0.054,0.039,0.052-0.039,0.036-0.026
				l-0.13,0.098c-0.708,0.505-1.352,1.077-1.964,1.661c-1.209,1.186-2.226,2.492-3.047,3.836c-1.65,2.689-2.557,5.486-2.895,7.98
				c-0.339,2.501-0.141,4.709,0.314,6.435c0.43,1.739,1.089,3.012,1.53,3.865c0.214,0.425,0.413,0.765,0.527,1.005
				c0.111,0.242,0.14,0.389,0.082,0.439c-0.057,0.049-0.199-0.002-0.421-0.148c-0.224-0.144-0.525-0.378-0.89-0.765
				c-0.72-0.754-1.689-1.989-2.441-3.859c-0.773-1.851-1.271-4.329-1.132-7.192c0.14-2.856,0.935-6.095,2.647-9.293
				c0.853-1.599,1.947-3.178,3.309-4.65c0.69-0.727,1.428-1.444,2.258-2.094l0.153-0.125l0.201-0.145l0.294-0.212l0.592-0.428
				c0.204-0.143,0.384-0.287,0.611-0.431c0.232-0.143,0.465-0.287,0.699-0.431c3.683-2.316,8.043-3.702,12.706-4.362
				c4.665-0.651,9.589-0.498,14.565,0.195l0.935,0.133l0.933,0.154c0.605,0.101,1.211,0.202,1.846,0.327
				c1.265,0.234,2.499,0.492,3.746,0.765c2.49,0.546,4.985,1.157,7.49,1.765c5.007,1.22,9.84,2.346,14.523,2.919l0.875,0.102
				l0.436,0.051l0.027,0.003c-0.021-0.001,0.085,0.008-0.04-0.002l0.056,0.004l0.113,0.008l0.226,0.016
				c0.602,0.042,1.201,0.084,1.798,0.125c0.589,0.032,1.208,0.106,1.763,0.103c0.56,0.004,1.117,0.008,1.671,0.012
				c0.556-0.001,1.103,0.024,1.659,0.005c0.559-0.029,1.115-0.057,1.668-0.086c0.553-0.027,1.103-0.055,1.65-0.082
				c0.544-0.06,1.085-0.12,1.623-0.18c4.304-0.466,8.352-1.35,12.045-2.503c3.685-1.182,7.012-2.605,9.976-4.069
				c5.878-3.036,10.19-6.317,13.06-8.704c0.709-0.608,1.371-1.121,1.913-1.6c0.534-0.486,0.996-0.891,1.382-1.21
				C718.904,114.218,719.368,113.926,719.483,114.024z"/>
		</g>
	</g>
</g>
</svg>
